<svg xmlns="http://www.w3.org/2000/svg" xmlns:xlink="http://www.w3.org/1999/xlink" viewBox="0 0 320 66"><defs><path id="a" d="M.494.092h22.4V8.94H.494z"/><path id="c" d="M.06.228h61.024v22.753H.06z"/></defs><g fill="none" fill-rule="evenodd"><path d="M33.074 56.078c12.636 0 22.982-10.244 22.982-22.881 0-12.636-10.763-22.791-22.982-22.779-12.636.012-23.051 10.143-23.051 22.779 0 12.637 10.415 22.881 23.051 22.881" fill="#FFFFFE"/><path d="M43.786 18.707c-2.958.452-6.925.714-11.08.71.053-4.547.129-7.831.218-8.823 4.208.718 8.033 3.752 10.862 8.113" fill="#FFFFFE"/><path d="M48.724 35.044c-4.285.653-10.026 1.032-16.038 1.026-.007-6.194.023-12.171.078-16.824 4.151.004 8.114-.258 11.071-.709 2.893 4.465 4.743 10.32 4.889 16.507" fill="#D0383F"/><path d="M48.347 35.014c-1.188-.188-2.189-2.172-1.665-4.221-1.674 1.158-3.56-1.222-3.285-3.424.146-1.166.91-2.203 2.243-1.722a33.05 33.05 0 00-2.013-5.247 69.218 69.218 0 01-3.857.373c1.223 1.847.023 3.565-1.683 3.292-1.236-.198-2.391-1.496-2.069-3.04-1.005.696-3.07.421-3.257-1.785 3.793-.019 7.129-.146 11.082-.705 3.195 5.272 4.567 9.891 4.896 16.479-.117 0-.276.017-.392 0M20.884 50.447c-2.36-.395-3.929-.902-4.459-1.451a52.227 52.227 0 01-1.888-2.236c-1.311-1.92-1.336-1.956-1.914-3.06-1.005-2.126-1.024-2.167-1.418-3.347-.665-2.297-.677-2.341-.879-3.59a51.79 51.79 0 01-.291-3.628l.02-.992c-.04.971 2.304 1.892 6.36 2.574-.01.322-.014.644-.014.969.01 5.974 1.711 11.142 4.483 14.761" fill="#FFFFFE"/><path d="M32.999 56.076l-.355-.002c-.211-.006-.421-.014-.632-.019a24.96 24.96 0 01-3.469-.426c-2.982-.682-5.624-2.524-7.675-5.221 2.024.338 4.625.595 7.65.726a99.22 99.22 0 004.285.094c.053 3.065.122 4.846.196 4.848" fill="#FFFFFE"/><path d="M32.802 51.228a100.806 100.806 0 01-4.284-.094c-3.022-.131-5.62-.388-7.644-.726-2.747-3.615-4.431-8.767-4.44-14.717-.001-.261.002-.521.008-.78 2.755.46 6.295.81 10.412.989 1.947.084 3.905.125 5.836.127l.002.78c.009 5.95.051 10.99.11 14.421" fill="#D0383F"/><path d="M32.768 51.543c-.198.793-1.308 1.551-2.881.908.734.971.098 1.809-1.196 1.574-1.005-.181-2.199-.991-2.292-1.8a54.58 54.58 0 01-3.391-.354c.959 1.114 2.03 2.026 3.185 2.703.14-.057.353-.043 1.038.197.877.307 1.696.754 2.571 1.066v.004c-.686-.107-.775-.119-1.262-.213-1.65-.474-4.724-1.359-7.673-5.22h.001c3.552.548 7.01.784 11.936.817-.011.094-.014.224-.036.318" fill="#D0383F"/><path d="M20.868 50.408c-3.164-4.531-4.408-8.869-4.442-15.472 1.788.589 2.28 3.201 1.82 4.669 1.701-.655 3.838 2.284 3.089 4.251-.344.905-1.24 1.157-2.177.611.507 1.717 1.164 3.285 1.948 4.674a66.49 66.49 0 004.032.42c-1.187-1.461-.234-2.659 1.348-2.577 1.36.07 3.159 1.2 2.774 2.744 1.226-.553 3.302-.099 3.545 1.504-1.49-.011-3.742-.028-6.626-.227-1.779-.122-3.533-.459-5.311-.597" fill="#FFFFFE"/><path fill="#D0383F" d="M20.867 50.408c-2.617-.473-3.749-.841-4.485-1.458a50.626 50.626 0 01-1.727-2.033c.09.114.15.189.393.473-.238-.299-1.436-1.828-1.522-2.501.65-.106 2.745 3.164 2.767 3.197.636.237 1.463.459 2.461.661a21.24 21.24 0 01-2.332-4.738c-1.426.72-3.247-3.05-2.67-4.641.118-.325.496-1.001 1.462-.269-.728-1.679-.537-4.166 1.222-4.162.039 5.56.808 10.319 4.431 15.471"/><path d="M48.622 38.981l-.029-.041a32.285 32.285 0 00.14-3.921l.033-.004a31.938 31.938 0 01-.144 3.966" fill="#1A1919"/><path d="M36.544 55.806l-.013.002c6.305-.98 11.164-7.67 12.062-16.868l.029.041c-.912 9.171-5.773 15.841-12.078 16.825" fill="#1A1919"/><path d="M44.153 53.197c-1.556.801-1.881.967-3.547 1.593a55.5 55.5 0 01-1.641.507c3.208-.865 6.054-2.699 8.304-5.249-.478 1.062-.805 1.669-2.482 2.782-.209.127-.42.248-.634.367" fill="#1A1919"/><path d="M44.787 52.83c1.379-.954 1.962-1.517 2.483-2.782 3.296-3.735 5.313-9.011 5.302-15.032 0-.253-.004-.506-.011-.758 1.041-.274 1.879-.574 2.468-.897.009.252.014.504.014.758.012 8.08-4.082 14.982-10.257 18.711" fill="#FBD034"/><path d="M37.9 46.906c-1.526-1.53-1.526-1.53-5.194-5.004a1540.24 1540.24 0 01-.017-5.095l-.001-.758c1.989.002 3.948-.038 5.833-.117l.005.758c.006 3.843-.221 7.312-.626 10.216" fill="#1A1919"/><path d="M33.976 56.057l-.145.006c-.316.008-.461.013-.594.013h-.239c-.133-.004-.248-5.668-.292-14.174 3.432 3.246 3.79 3.586 5.194 5.004-.778 5.579-2.215 9.077-3.924 9.151" fill="#FBD034"/><path d="M35.061 55.986c-.181.015-.424.033-.606.045-.144.01-.335.02-.479.026 1.708-.074 3.143-3.566 3.921-9.137 1.657 1.74 2.388 2.59 3.188 3.894-1.559 3.079-3.655 4.96-6.024 5.172" fill="#1A1919"/><path d="M41.085 50.814c-.789-1.24-1.269-1.896-3.188-3.894.407-2.907.635-6.381.629-10.23l-.005-.758c1.888-.078 3.703-.196 5.402-.346.004.253.007.506.007.759.01 5.907-1.069 10.964-2.845 14.469" fill="#FBD034"/><path d="M41.546 53.626c.289-.908.264-1.443-.455-2.826 1.772-3.505 2.849-8.556 2.839-14.455 0-.253-.003-.506-.007-.759a85.75 85.75 0 001.861-.184c.844.995 1.893 2.231 2.809 3.538-.64 6.555-3.292 11.837-7.047 14.686" fill="#1A1919"/><path d="M36.531 55.808c-.171.024-.398.058-.568.081-.537.064-.537.064-.815.089l-.087.008c2.372-.212 4.472-2.099 6.03-5.186.62 1.235.82 1.8.455 2.826-1.512 1.147-3.204 1.9-5.016 2.183" fill="#FBD034"/><path d="M38.965 55.297l-.554.141c-.921.206-.921.206-1.419.294l-.448.074c4.474-.698 8.22-4.257 10.344-9.542.588 1.564.773 2.297.379 3.788-2.25 2.549-5.097 4.381-8.302 5.245" fill="#FBD034"/><path d="M38.411 55.438c-.921.206-.921.206-1.419.294l-.448.074c1.802-.281 3.485-1.027 4.993-2.161-.525.782-.885 1.127-2.573 1.652l-.553.141M47.267 50.052c.314-1.312.304-2.043-.379-3.788 1.21-3.008 1.894-6.575 1.888-10.491a47.894 47.894 0 00-.01-.758c1.449-.222 2.729-.476 3.795-.757.007.252.011.505.011.758.011 6.023-2.008 11.299-5.305 15.036" fill="#1A1919"/><path d="M44.153 53.197c.207-.114.411-.232.613-.354l-.232.139-.381.215" fill="#FBD034"/><path d="M55.149 34.059c.014 8.209-4.235 15.214-10.606 18.917l-.009.006.232-.139c6.186-3.726 10.289-10.635 10.277-18.724 0-.254-.005-.506-.014-.758.037-.019.073-.039.107-.06.009.252.013.505.013.758" fill="#1A1919"/><path d="M46.862 46.262c-.81-1.651-1.359-2.528-3.212-4.805a44.061 44.061 0 00.273-5.871 76.179 76.179 0 004.81-.567c.006.253.009.506.009.758.006 3.914-.675 7.479-1.88 10.485" fill="#FBD034"/><path d="M43.648 41.477c-1.325-1.522-1.99-2.286-5.126-5.545 1.774-.088 3.175-.159 5.401-.357a44.179 44.179 0 01-.275 5.902M16.432 34.932a1.916 1.916 0 00-.032-.006c.03-1.346.145-2.676.339-3.978l.025.052a32.074 32.074 0 00-.332 3.932M16.764 31l-.025-.052c1.404-9.432 6.909-17.445 13.8-19.901l-.03.012C23.637 13.537 18.15 21.563 16.764 31" fill="#1A1919"/><path d="M30.509 11.059l.03-.012a13.239 13.239 0 01-.03.012" fill="#1A1919"/><path d="M19.231 17.793c.8-1.795 1.387-2.69 3.087-4.146 3.165-1.899 6.799-3.059 10.663-3.223-5.321.48-10.156 3.244-13.75 7.369" fill="#FBD034"/><path d="M12.899 34.16c-.931-.272-1.651-.562-2.134-.866.253-8.279 4.854-15.624 11.553-19.647-1.584 1.407-2.288 2.246-3.087 4.146-3.761 4.316-6.16 10.126-6.332 16.366" fill="#1A1919"/><path d="M32.688 36.049a139.06 139.06 0 01-5.834-.127c-.059-.004-.118-.006-.176-.008.031-4.086.361-8.068.915-11.635 1.66 2.084 2.531 3.094 5.1 5.778-.006 1.947-.007 3.958-.005 5.992M27.596 24.264c-1.556-2.162-2.221-3.285-2.864-5.284 2.135-4.501 5.042-7.697 8.249-8.556-2.284 1.286-4.279 6.732-5.385 13.84" fill="#FBD034"/><path d="M26.678 35.914c-1.999-.09-3.861-.22-5.56-.383.096-6.14 1.463-12.01 3.614-16.551.657 1.917 1.189 3.002 2.864 5.284-.556 3.57-.887 7.558-.918 11.65" fill="#1A1919"/><path d="M21.118 35.531a87.52 87.52 0 01-1.843-.198c-.768-1.175-1.722-2.636-2.511-4.333.982-6.678 4.015-12.65 8.141-16.448-.55 1.516-.66 2.416-.18 4.446-2.149 4.539-3.512 10.4-3.607 16.533" fill="#FBD034"/><path d="M24.725 18.998c-.413-1.867-.448-2.819.18-4.446 2.388-2.2 5.143-3.671 8.076-4.128-3.212.86-6.121 4.062-8.256 8.574" fill="#1A1919"/><path d="M18.907 23.254c-.336-2.224-.337-3.383.328-5.465 3.593-4.123 8.427-6.885 13.746-7.365-1.268.211-1.496.25-2.442.623-4.908 1.749-9.112 6.315-11.632 12.207" fill="#1A1919"/><path d="M24.92 14.521c.771-1.335 1.277-1.981 3.213-2.998a18.82 18.82 0 014.848-1.099c-2.926.454-5.675 1.914-8.061 4.097M16.4 34.926c-1.371-.231-2.547-.488-3.501-.766.172-6.244 2.573-12.054 6.336-16.371-.585 1.935-.722 3.051-.328 5.465-1.508 3.523-2.414 7.521-2.507 11.672" fill="#FBD034"/><path d="M22.34 13.635c1.679-1.21 2.623-1.783 5.239-2.582a23.327 23.327 0 015.402-.629 22.526 22.526 0 00-10.641 3.211" fill="#1A1919"/><path d="M10.765 33.294c-.481-.302-.728-.616-.718-.935l.039-.796c.66-10.003 7.898-18.229 17.493-20.51-2.165.686-3.372 1.197-5.239 2.582-6.712 4.019-11.322 11.371-11.575 19.659" fill="#FBD034"/><path d="M21.118 35.531a69.462 69.462 0 01-4.686-.599c.093-4.149.996-8.144 2.499-11.666.581 2.312 1.049 3.544 2.683 6.287a44.587 44.587 0 00-.496 5.978" fill="#1A1919"/><path d="M21.118 35.541c.031-2.045.203-4.061.499-6.008 1.404 2.091 2.268 3.324 5.061 6.381-1.915-.097-3.299-.167-5.56-.373" fill="#FBD034"/><path d="M28.133 11.523c1.276-.515 2.378-.961 4.848-1.099a18.82 18.82 0 00-4.848 1.099" fill="#1A1919"/><path d="M55.998 33.059c-.023 1.234-.056 3.097-.715 5.745-.596 2.392-1.635 4.497-1.985 5.106-1.185 2.06-3.389 5.894-8.755 9.066"/><path d="M55.179 33.279c.586-.341.86-.682.849-1.018.313 9.565-5.073 16.986-11.446 20.689l-.022.014.24-.144c6.185-3.725 10.287-10.635 10.275-18.722 0-.254-.006-.506-.014-.758.04-.022.078-.043.114-.065.01.252.013.504.013.758" fill="#1A1919"/><path d="M55.179 33.279c.586-.341.86-.682.849-1.018.313 9.565-5.073 16.986-11.446 20.689l-.022.014.24-.144c6.185-3.725 10.287-10.635 10.275-18.722 0-.254-.006-.506-.014-.758.04-.022.078-.043.114-.065.01.252.013.504.013.758"/><path d="M43.867 18.525l.018-.003h-.001l.012-.001.632-.108c1.31-.241 4.163-.867 4.163-1.733 0 0 1.271 1.161 2.123 2.746.104.173.191.351.256.534.075.181.128.35.155.501l.019.029c.004.072.004.137.001.198 0 .025-.002.048-.004.073-.05.491-.353.501-.68.355a.883.883 0 01-.105-.042c-1.177-.53-1.56-1.607-1.79-2.053-.596.19-1.585.618-2.407.778-.095.019-.27.06-.367.079a30.67 30.67 0 012.552 5.341c1.153-1.184 2.957 1.013 3.043 3.135.051 1.247-.509 2.356-1.648 1.957.912 1.687.619 4.164-1.11 4.705-.288-5.551-1.228-10.477-4.886-16.479v-.002M44.074 14.27l-.017-.012.015.001a.558.558 0 01-.015-.05l.056-.073.075-.009-.005-.006s.167-.697 2.794 1.118c-4.467-3.487-8.998-4.478-11.682-4.741.285.084.499.168.661.247.139.069.239.136.31.196l.011-.002c.326.037.62.094.885.159.095.033.191.068.288.104l.037.014c.083.032.167.064.251.098l.064.026.235.099c.024.012.049.022.073.032.099.045.2.09.301.138l-.001.004c.807.395 1.461.838 1.465 1.178-.12.072-.157.095-.512-.001 1.353.966 3.293 2.782 4.44 4.121.788-.149 1.964-.317 2.505-.499-.039.039-1.997-1.433-2.234-2.142" fill="#D0383F"/><path d="M48.678 16.696a24.745 24.745 0 00-1.701-1.457c-1.063-.735-1.723-1.058-2.133-1.182l.005-.006s-1.31-.422-.569.582l.003-.003c.569.754 1.992 1.815 2.025 1.782-.541.182-1.717.35-2.505.499-1.147-1.339-3.087-3.155-4.44-4.121.355.096.392.073.512.001-.004-.34-.658-.783-1.465-1.178l.001-.004c-.101-.048-.202-.093-.301-.138-.024-.01-.049-.02-.073-.032l-.235-.099a1.717 1.717 0 01-.064-.026c-.084-.034-.168-.066-.251-.098l-.037-.014a14.588 14.588 0 00-.288-.104 7.02 7.02 0 00-.885-.159l-.011.002c.018.016.031.032.047.047l-.087-.043.04-.004a1.54 1.54 0 00-.31-.196 4.266 4.266 0 00-.661-.247 18.264 18.264 0 00-1.603-.088c-.306-.012-.554-.014-.607.005-.004.001-.005.003-.005.007-.095.002-.148.006-.148.006l.102.033a10.716 10.716 0 01.254.052c.356.118 1.099.315 1.659.461 3.437 1.21 6.532 3.919 8.92 7.551.036-.004.071-.009.108-.016 2.126-.358 3.306-.751 4.149-1.142l.007-.002c.607-.336.54-.666.54-.666l.007-.003" fill="#FFFFFE"/><path d="M43.843 18.535s0 .002 0 0c-3.729-5.496-7.159-7.139-10.279-7.944.081.022.162.048.243.075a84.915 84.915 0 00-.425-.112c-.038-.013-.073-.025-.104-.034.095.022.191.046.286.071a7.64 7.64 0 00-.332-.088l-.09-.031.031.018c-.072-.016-.144-.033-.22-.048.668.738 1.603 1.05 1.83 1.119-.065.275-.018.828.947 1.525.15.108.294.193.433.262 1.487.777 1.816.173 1.886-.071l.025-.019a15.418 15.418 0 012.315 2.152c.561.675 1.092 1.264 1.491 1.855-.918.116-2.135.223-3.341.31-.069-1.46-1.122-2.187-1.784-2.433-1.449-.54-1.927 1.167-1.299 2.366-1.146-.621-2.504-.069-2.695 1.744 4.532-.027 7.638-.227 11.082-.717" fill="#D0383F"/><path d="M32.693 30.057c-2.249-2.361-3.456-3.685-5.1-5.778 1.106-7.114 3.102-12.568 5.388-13.855-.148 1.673-.262 9.863-.288 19.633M5.443 16.183l.133.065c-.223.466-.119.725.322.943l1.865.924c.856.426 1.503 1.426.761 2.924-.655 1.318-1.743 1.623-2.731 1.133l-2.015-1c-.442-.219-.573-.13-.813.337l-.131-.066.881-1.774.131.065-.031.063c-.189.379-.167.596.233.795l1.919.952c.933.462 1.763.194 2.273-.834.387-.78.456-1.735-.718-2.317l-1.608-.799c-.663-.328-.831-.283-1.143.276l-.132-.065.804-1.622M13.422 13.896l-5.767.362 2.529 2.131c.424.357.592.338 1.014-.163l.112.094-1.152 1.368-.112-.095.02-.024c.307-.365.283-.587.013-.815l-2.9-2.443c-.209.055-.385.169-.565.371l-.112-.094.78-.926 5.233-.338-2.346-1.976c-.36-.303-.514-.251-.923.211l-.112-.096 1.162-1.379.112.095c-.372.442-.375.6-.145.795l3.288 2.77-.129.152M16.227 11.417l-1.441 1.196-.094-.112c.354-.323.352-.482.022-.88l-2.097-2.525c-.266-.321-.452-.317-.799-.059l-.094-.112 1.441-1.196.094.113c-.374.31-.436.501-.105.898l2.087 2.514c.29.35.484.391.893.051l.093.112M19.065 9.65L15.514 6.9c-.412-.323-.55-.375-.954-.138l-.075-.126 1.828-1.072.075.127c-.604.371-.669.596-.364.829l2.943 2.277-.559-3.361c-.036-.23-.073-.385-.128-.479-.117-.199-.331-.182-.782.083l-.074-.126 1.542-.904.074.126c-.346.202-.432.468-.35.973l.708 4.347-.333.194M24.727 5.131l-.14.047c-.236-.496-.395-.507-.693-.405l-1.231.426.535 1.551c.116.335.262.357.532.266l1.122-.387c.509-.177.595-.426.561-1.115l.131-.045.258 1.125-3.869 1.334-.048-.138.204-.071c.583-.2.63-.396.479-.833l-1.06-3.075c-.141-.408-.296-.55-.784-.382l-.161.056-.047-.138 3.497-1.206.407.992-.131.046c-.308-.588-.535-.656-.798-.566l-1.536.531.617 1.792 1.304-.45c.263-.09.344-.257.234-.692l.139-.048.478 1.385" fill="#1A1919"/><g fill="#1A1919"><path d="M27.965 4.062c.124-.007.224-.011.392-.032.207-.024.329-.047.519-.077.199.1.493.291.87.586l.565.445c.762.601 1.141.852 2.473.631l-.016-.138c-.595.031-1.095-.196-1.6-.594l-.676-.533a9.206 9.206 0 00-.968-.692c.606-.258.938-.786.871-1.36-.093-.781-.798-1.287-2.213-1.118-.497.059-.65.085-.962.137-.312.053-.775.139-.959.16l.018.146.168-.019c.444-.054.59.069.647.543l.383 3.222c.061.512-.085.654-.537.707l-.13.016.018.146 2.165-.258-.018-.144-.175.019c-.429.051-.626-.042-.681-.5l-.154-1.293zm-.315-2.657c.136-.031.236-.043.381-.06 1.178-.14 1.565.372 1.65 1.084.109.919-.407 1.344-1.256 1.446-.176.02-.29.042-.477.041l-.298-2.511zM33.888 4.504c.108.695.613 1.137 1.213 1.183.515.042 1.084-.216 1.132-.823.087-1.106-2.353-1.636-2.249-2.981.05-.638.671-1.069 1.455-1.007.645.05.76.252 1.03.273.061.005.093-.008.144-.066l.123.009.054.987-.13-.011c-.172-.569-.636-.962-1.166-1.003-.508-.039-.884.225-.917.656-.085 1.091 2.358 1.575 2.248 2.989-.059.753-.771 1.261-1.671 1.19-.423-.033-.944-.282-1.051-.29a.182.182 0 00-.16.073l-.132-.011-.069-1.18.146.012"/></g><path d="M39.813 6.525l-1.83-.399.032-.144c.472.08.595-.019.705-.523l.699-3.208c.09-.407-.029-.551-.446-.666l.031-.143 1.83.399-.031.143c-.475-.103-.664-.034-.774.471l-.695 3.192c-.097.445-.009.622.51.735l-.031.143M43.699 7.078c-.155.387-.079.574.358.746l.265.106-.054.136-2.256-.894.053-.137.265.106c.437.172.62.088.773-.299l1.403-3.54-1.246-.493c-.287-.114-.481 0-.839.587l-.128-.051.574-1.115.137.054c-.01.046.008.085.044.117a.487.487 0 00.135.078l3.446 1.366c.1.041.217.061.265-.019l.136.054-.345 1.206-.13-.051c.143-.673.079-.889-.208-1.003l-1.246-.494-1.402 3.54M51.544 7.58c.441-.216.392-.406-.019-.68l.082-.122 1.449.968-.082.121c-.457-.259-.759-.209-1.14-.028l-2.267 1.09-.642.961c-.226.339-.194.555.196.817l.084.055-.082.122-1.762-1.177.082-.122.121.081c.398.266.611.195.822-.119l.602-.903.051-2.543c.016-.705-.072-.892-.48-1.183l.081-.121 1.705 1.139-.081.121c-.5-.334-.614-.235-.618.189l-.032 2.268 1.93-.934M58.552 17.18c1.103-.842 1.136-2.438.253-3.596-.994-1.305-2.574-1.583-3.793-.654-1.146.875-1.147 2.474-.231 3.675.907 1.19 2.533 1.518 3.771.575zm-.641-.422c-.87.662-2.118.858-2.879-.141-.752-.986-.536-2.382.609-3.256.736-.56 2.068-.898 2.89.18.771 1.012.519 2.348-.62 3.217zM60.169 21.996l-.057-.118c.397-.206.452-.413.294-.746l-.615-1.287-1.523.726c-.389.186-.496.339-.246.862l-.133.063-.807-1.691.133-.063c.234.418.36.451.924.183l2.726-1.302c.445-.211.63-.343.405-.832l.133-.065 1.487 3.117-.822.391-.056-.119c.4-.199.501-.418.295-.847l-.631-1.323-1.634.78.657 1.378c.124.256.328.312.637.19l.057.119-1.224.584M6.221 52.159l2.774-5.115-.011-.016-3.744 2.387c-.423.271-.291.638-.047 1.008l-.152.11-1.203-1.658.152-.109c.422.58.601.56 1.356.074l3.239-2.059c.55-.349.681-.468.355-.986l.143-.105.874 1.205-2.623 4.835 5.404-1.003.85 1.172-.143.104c-.316-.367-.433-.513-.693-.3l-3.425 2.875c-.699.58-.653.643-.231 1.225l-.151.11-1.486-2.049.151-.11c.272.375.642.666 1.041.328l3.403-2.821-.012-.017-5.688 1.099-.133-.184M15.855 57.935l-.53 1.834c-.027.104-.059.263-.152.391-.163.222-.365.147-.818-.186l-.206-.152-.11.151 2.182 1.604.11-.15c-.396-.292-.505-.493-.355-1.031l1.581-5.622-.691-.506-.056.225-4.344 2.882c-.761.503-.912.525-1.434.154l-.112.151 1.833 1.347.112-.15-.127-.093c-.437-.321-.585-.552-.427-.766.081-.112.359-.273.526-.383l1.376-.908 1.642 1.208zm.122-.448l-1.373-1.009 2.034-1.352-.661 2.361z" fill="#1A1919"/><g transform="translate(18 57)"><mask id="b" fill="#fff"><use xlink:href="#a"/></mask><path d="M3.03 4.018c.146.06.263.112.467.184.251.09.402.134.638.206.17.228.399.611.663 1.165l.395.829c.533 1.12.825 1.621 2.476 2.123l.059-.167c-.698-.301-1.142-.844-1.496-1.586l-.473-.993c-.281-.591-.468-.949-.715-1.341.84.048 1.52-.37 1.767-1.065.336-.947-.185-1.926-1.901-2.535-.603-.214-.792-.27-1.179-.387-.387-.117-.967-.28-1.189-.359l-.063.176.204.073c.539.19.637.413.433.99L1.73 5.237c-.221.622-.468.702-1.016.507l-.157-.056-.063.176 2.626.933.063-.177-.213-.075c-.52-.185-.693-.403-.496-.961l.556-1.566zM4.172.796c.174.042.295.083.472.146 1.429.507 1.581 1.314 1.274 2.177-.394 1.113-1.226 1.309-2.256.944-.214-.077-.356-.116-.569-.223L4.172.796zM14.203 3.809c.359-.513.187-.696-.441-.749l.015-.187 2.218.19-.016.185c-.671-.008-.979.233-1.293.671l-1.862 2.618-.126 1.473c-.045.519.125.741.722.793l.128.01-.015.187-2.699-.23.017-.187.185.017c.609.05.805-.161.846-.641l.117-1.383L10.485 3.7c-.416-.797-.63-.954-1.266-1.027l.015-.187 2.611.223-.016.185c-.765-.064-.83.119-.575.594l1.364 2.559 1.585-2.238M22.386 8.232l-4.339.735-.032-.186.32-.052c.448-.077.587-.25.504-.746l-.726-4.301c-.087-.515-.279-.701-.89-.598l-.136.022-.031-.184 2.863-.484.032.185-.359.06c-.631.107-.785.203-.683.804l.756 4.477c.043.262.166.341.449.293l1.427-.239c.573-.098.709-.351 1.179-1.299l.174-.03-.508 1.543" fill="#1A1919" mask="url(#b)"/></g><path d="M45.408 60.648l1.3 1.401c.074.074.195.184.255.33.107.254-.061.389-.579.604l-.237.099.073.173 2.498-1.044-.072-.172c-.454.19-.683.178-1.066-.226l-4.005-4.251-.791.331.165.166.234 5.206c.039.912-.02 1.053-.606 1.309l.071.173 2.1-.877-.072-.173-.145.061c-.501.209-.776.217-.877-.029-.052-.127-.05-.449-.058-.648l-.068-1.647 1.88-.786zm-.321-.334l-1.572.657-.112-2.441 1.684 1.784zM56.061 56.832l-7.332-.865 2.691 3.256c.451.546.667.56 1.312.027l.119.144-1.761 1.456-.119-.145.031-.025c.471-.389.489-.674.202-1.024l-3.087-3.734c-.275.023-.522.126-.794.338l-.118-.145 1.19-.984 6.655.772-2.495-3.021c-.384-.463-.588-.435-1.208.053l-.119-.144 1.775-1.469.12.145c-.569.471-.61.67-.365.965l3.499 4.236-.196.164" fill="#1A1919"/><g transform="translate(0 31)"><mask id="d" fill="#fff"><use xlink:href="#c"/></mask><path d="M58.445 21.695c.479.311.471.598.181 1.044l-.091.141.156.101 1.712-2.645c1.351-2.094.48-4.028-.769-4.836-1.363-.881-3.097-.631-4.509 1.553-.278.43-.595.939-.874 1.406-.276.465-.522.881-.703 1.197l.157.102.107-.165c.316-.489.539-.543 1.076-.196l3.557 2.298zm-3.824-3.444c.056-.104.175-.344.394-.683.749-1.158 1.418-1.558 2.043-1.693.804-.172 1.595.094 2.206.488.853.551 1.243 1.342 1.343 1.842.181.844.039 1.408-.677 2.516-.421.653-.554.603-.893.385l-4.416-2.855zM1.449.228v4.218c0 .219.044.277.27.277h.407v.133H.298v-.133H.69c.235 0 .278-.066.278-.284V.81c-.233.204-.64.472-.91.595L0 1.304C.422 1.02 1.025.475 1.197.228h.252" fill="#1A1919" mask="url(#d)"/></g><path d="M5.539 32.268c0 .415-.203.749-.609 1.003-.942-.4-1.159-.691-1.159-1.089 0-.459.392-.823.892-.823.506 0 .876.386.876.909zm.439.007c0-.581-.585-1.046-1.314-1.046-.719 0-1.321.539-1.321 1.177 0 .494.312.865.994 1.17-.714.283-1.061.684-1.061 1.193 0 .663.623 1.193 1.412 1.193.811 0 1.437-.582 1.437-1.338 0-.56-.328-.946-1.094-1.288.639-.254.947-.596.947-1.061zm-.319 2.553c0 .566-.416 1.003-.964 1.003-.555 0-.964-.459-.964-1.077 0-.472.248-.836.746-1.106.846.387 1.182.692 1.182 1.18zM59.821 31.748h1.722c.131 0 .174-.028.211-.093h.138l-.08.562h-1.839l-.058 1.303c.225-.121.488-.179.785-.179.814 0 1.49.679 1.49 1.499 0 .882-.734 1.552-1.708 1.552-.581 0-1.062-.203-1.062-.458 0-.124.11-.226.241-.226.393 0 .529.51.988.51.538 0 .996-.562.996-1.225 0-.671-.458-1.171-1.083-1.171-.269 0-.552.108-.771.293l-.072-.051.102-2.316M65.402 31.655c-1.521.429-2.44 1.498-2.44 2.845 0 1.115.627 1.892 1.523 1.892.779 0 1.42-.667 1.42-1.469 0-.744-.575-1.341-1.289-1.341-.357 0-.64.115-1.034.422.16-1.063.765-1.775 1.9-2.242l-.08-.107zm-.044 3.333c0 .825-.349 1.283-.859 1.283-.459 0-.989-.4-.989-1.626 0-.247.014-.35.035-.452.445-.357.773-.437.962-.437.487 0 .851.453.851 1.232zM86.588 22.309c.357 1.511 1.547 2.396 2.873 2.396 1.139 0 2.346-.662 2.346-2.006 0-2.447-5.457-3.195-5.457-6.172 0-1.41 1.291-2.464 3.026-2.464 1.427 0 1.716.425 2.312.425.136 0 .204-.035.306-.17h.272l.289 2.158h-.289c-.476-1.222-1.564-2.005-2.737-2.005-1.122 0-1.903.646-1.903 1.597 0 2.414 5.456 3.061 5.456 6.19 0 1.666-1.479 2.906-3.468 2.906-.936 0-2.125-.459-2.363-.459a.41.41 0 00-.34.188h-.289l-.358-2.584h.324M107.172 17.105c-.561-1.58-2.023-2.617-3.877-2.617-2.838 0-4.607 2.057-4.607 4.912 0 3.079 2.211 5.338 4.795 5.338 1.343 0 2.992-.459 4.148-2.515h.323c-.221.765-.68 1.82-1.088 2.482-1.088-.152-1.836.459-3.842.459-3.451 0-5.934-2.277-5.934-5.424 0-3.297 2.551-5.677 6.104-5.677 2.142 0 3.06.679 3.587.679.186 0 .272-.051.305-.101h.256l.153 2.464h-.323M115.114 19.844v3.228c0 1.106.22 1.496 1.36 1.496h.052v.325h-4.268v-.325h.102c1.004 0 1.344-.271 1.344-1.24v-7.48c0-.883-.289-1.139-1.225-1.207v-.323h4.047v.323c-1.207 0-1.412.324-1.412 1.632v2.957h6.664v-3.347c0-.903-.289-1.242-1.343-1.242h-.323v-.323h4.369v.323c-1.02.035-1.291.339-1.291 1.394v7.055c0 1.207.34 1.478 1.359 1.478h.17v.325h-4.81v-.325h.526c1.105 0 1.343-.39 1.343-1.273v-3.451h-6.664M134.62 14.488c-2.992 0-4.182 2.787-4.182 4.828 0 3.178 2.159 5.422 4.897 5.422 2.771 0 4.096-2.447 4.096-4.861 0-3.162-2.006-5.389-4.811-5.389zm.358 10.676c-3.332 0-6.137-2.143-6.137-5.32 0-3.383 2.601-5.781 6.222-5.781 3.213 0 5.967 2.193 5.967 5.253 0 3.434-2.754 5.848-6.052 5.848zM151.181 14.488c-2.993 0-4.182 2.787-4.182 4.828 0 3.178 2.16 5.422 4.897 5.422 2.771 0 4.097-2.447 4.097-4.861 0-3.162-2.008-5.389-4.812-5.389zm.357 10.676c-3.332 0-6.137-2.143-6.137-5.32 0-3.383 2.602-5.781 6.223-5.781 3.213 0 5.967 2.193 5.967 5.253 0 3.434-2.754 5.848-6.053 5.848zM170 24.893h-7.599v-.325h.561c.783 0 1.07-.254 1.07-1.121v-7.531c0-.9-.271-1.275-1.342-1.275h-.238v-.323h5.016v.323h-.629c-1.106 0-1.395.119-1.395 1.173v7.836c0 .459.188.629.68.629h2.5c1.001 0 1.308-.39 2.378-1.869h.307L170 24.893M189.516 14.488c-2.992 0-4.182 2.787-4.182 4.828 0 3.178 2.159 5.422 4.895 5.422 2.771 0 4.098-2.447 4.098-4.861 0-3.162-2.006-5.389-4.811-5.389zm.358 10.676c-3.332 0-6.139-2.143-6.139-5.32 0-3.383 2.601-5.781 6.223-5.781 3.212 0 5.966 2.193 5.966 5.253 0 3.434-2.754 5.848-6.05 5.848zM206.612 20.828h-.289c-.033-.984-.391-1.291-1.207-1.291h-3.145v3.723c0 .953.203 1.308 1.479 1.308v.325h-4.131v-.325c1.055-.066 1.24-.289 1.24-1.666v-6.664c0-1.088-.084-1.58-1.273-1.597v-.323h7.615v2.006h-.289c-.018-.986-.358-1.394-1.41-1.394h-3.231v3.996h3.365c.629 0 .936-.358.987-1.088h.289v2.99M89.252 44.228c.39.09 1.05.241 1.62.241 3.271 0 5.37-2.219 5.37-5.25 0-2.34-.93-4.651-4.92-4.651-.69 0-1.35 0-2.07.121v9.539zm0 5.821c0 1.679.51 2.31 2.4 2.31h.99v.571h-8.31v-.571h.42c1.56 0 2.01-.33 2.01-1.74V36.43c0-1.112-.36-1.59-1.41-1.59h-1.5v-.571c.84-.031 2.31-.121 3.78-.179 1.471-.061 2.91-.09 3.721-.09 6.27 0 7.709 3 7.709 5.309 0 3.509-2.82 5.73-7.26 5.73-.9 0-1.65-.061-2.55-.24v5.25zM123.581 34.269v.571c-2.01.029-2.73.84-2.73 2.76v8.099c0 3.721-2.371 7.711-8.88 7.711-5.73 0-8.671-3.271-8.671-7.56v-8.76c0-1.92-.54-2.221-2.579-2.25v-.571h7.71v.571h-.27c-1.65 0-2.37.449-2.37 2.189v8.34c0 4.051 2.37 6.481 6.839 6.481 3.391 0 6.841-1.411 6.841-6.51v-6.99c0-2.881-.45-3.391-2.94-3.51v-.571h7.05" fill="#1A1919"/><path d="M129.38 49.029c0 2.28.9 3.09 3.42 3.09 3.961 0 5.1-2.461 5.1-4.801 0-2.308-1.77-4.679-5.28-4.679h-3.24v6.39zm0-6.961h3.269c2.881 0 4.321-1.138 4.321-3.478 0-2.102-1.26-4.022-4.949-4.022-.661 0-1.891.061-2.641.09v7.41zm-2.49-4.619c0-1.711-.209-2.609-2.31-2.609h-1.05v-.571c.84-.031 2.91-.15 3.78-.179 1.65-.061 3.93-.09 4.5-.09 2.64 0 4.951.389 6.031 1.17 1.229.869 1.83 1.889 1.83 3.33 0 1.709-1.41 3.299-3.421 3.658v.061c2.82.84 4.47 2.67 4.47 5.01 0 2.371-1.65 5.701-6.48 5.701h-10.98v-.571h.69c2.46 0 2.94-.57 2.94-2.461V37.449zM156.319 52.93h-13.41v-.571h.99c1.381 0 1.891-.449 1.891-1.98V37.09c0-1.59-.48-2.25-2.37-2.25H143v-.571h8.851v.571h-1.112c-1.949 0-2.459.209-2.459 2.068v13.83c0 .811.33 1.112 1.199 1.112h4.411c1.77 0 2.31-.69 4.2-3.301h.54l-2.311 4.381M167.821 52.93h-7.29v-.571c1.861-.09 2.25-.57 2.25-2.58V37c0-1.621-.57-2.07-2.25-2.16v-.571h7.29v.571c-1.89 0-2.55.42-2.55 2.429v12.719c0 1.772.48 2.371 2.55 2.371v.571M187.586 39.189c-.99-2.791-3.57-4.621-6.839-4.621-5.01 0-8.131 3.631-8.131 8.67 0 5.432 3.9 9.422 8.461 9.422 2.369 0 5.279-.81 7.32-4.441h.568c-.388 1.349-1.199 3.211-1.92 4.381-1.92-.27-3.24.81-6.779.81-6.09 0-10.471-4.021-10.471-9.57 0-5.821 4.5-10.022 10.772-10.022 3.779 0 5.398 1.201 6.33 1.201.33 0 .478-.089.539-.179h.449l.272 4.349h-.571M207.01 44.019v5.7c0 1.951.391 2.64 2.401 2.64h.089v.571h-7.529v-.571h.18c1.769 0 2.369-.48 2.369-2.189V36.969c0-1.561-.51-2.01-2.16-2.129v-.571h7.14v.571c-2.128 0-2.49.568-2.49 2.879v5.22h11.762v-5.91c0-1.59-.512-2.189-2.371-2.189h-.57v-.571h7.711v.571c-1.801.058-2.282.599-2.282 2.459V49.75c0 2.129.602 2.609 2.401 2.609h.3v.571h-8.49v-.571h.93c1.949 0 2.371-.689 2.371-2.25v-6.09H207.01M239.374 46.18h-.571c-.24-2.131-.808-2.371-2.039-2.371h-5.07v6.39c0 1.381.51 1.651 1.619 1.651h4.621c2.1 0 2.731-.811 3.481-3.391h.539l-.481 4.471h-15.93v-.571h.84c2.401 0 2.821-.66 2.821-2.461v-12.66c0-1.679-.391-2.398-2.401-2.398h-.66v-.571h14.4l.241 4.17h-.539c-.391-2.55-1.141-3.089-2.221-3.089h-6.33v7.378h5.369c1.08 0 1.59-.509 1.74-2.25h.571v5.702M252.192 36.34l-2.551 6.99h5.19l-2.639-6.99zm-3.061 8.308l-1.74 4.711c-.209.571-.599 1.471-.599 1.891 0 .809.779 1.109 2.429 1.109h.481v.571h-6.93v-.571c1.949-.029 2.279-.359 3.24-2.97l5.459-14.911-.269-.66h2.609l6.272 16.651c.599 1.59 1.228 1.89 2.728 1.89v.571h-8.25v-.571h.781c1.709 0 2.34-.179 2.34-1.019 0-.481-.211-.93-.33-1.231l-2.01-5.461h-6.211z" fill="#1A1919"/><path d="M275.725 52.93h-13.41v-.571h.99c1.379 0 1.891-.449 1.891-1.98V37.09c0-1.59-.481-2.25-2.371-2.25h-.42v-.571h8.849v.571h-1.109c-1.949 0-2.461.209-2.461 2.068v13.83c0 .811.33 1.112 1.201 1.112h4.41c1.77 0 2.311-.69 4.2-3.301h.541l-2.311 4.381M287.5 50.17c0 1.619.54 2.189 2.37 2.189h1.111v.571h-9.451v-.571h1.111c1.83 0 2.369-.57 2.369-2.189V35.35h-5.22c-1.2 0-1.741.689-2.19 3.33h-.539l.479-4.862h.57c.031.182.15.301.33.362a2 2 0 00.6.089h14.431c.42 0 .869-.089.93-.451h.57l.479 4.862h-.539c-.452-2.641-.991-3.33-2.19-3.33H287.5v14.82M302.506 44.019v5.7c0 1.951.391 2.64 2.401 2.64h.09v.571h-7.532v-.571h.182c1.77 0 2.369-.48 2.369-2.189V36.969c0-1.561-.51-2.01-2.16-2.129v-.571h7.141v.571c-2.131 0-2.491.568-2.491 2.879v5.22h11.76v-5.91c0-1.59-.51-2.189-2.369-2.189h-.57v-.571h7.709v.571c-1.799.058-2.28.599-2.28 2.459V49.75c0 2.129.6 2.609 2.401 2.609h.299v.571h-8.491v-.571h.932c1.949 0 2.369-.689 2.369-2.25v-6.09h-11.76" fill="#1A1919"/></g></svg>