<svg width="31" height="36" viewBox="0 0 31 36" fill="none" xmlns="http://www.w3.org/2000/svg">
<path fill-rule="evenodd" clip-rule="evenodd" d="M21.488 18.8701C21.488 22.0966 18.8725 24.7121 15.646 24.7121C12.4195 24.7121 9.80389 22.0966 9.80389 18.8701C9.80389 15.6436 12.4195 13.028 15.646 13.028C18.8725 13.028 21.488 15.6436 21.488 18.8701ZM24.6459 18.8701C24.6459 23.8406 20.6165 27.87 15.646 27.87C13.9059 27.87 12.2812 27.3762 10.9043 26.5211L6.5601 30.8654L1.35425 30.8654L8.18589 23.9062C7.21375 22.469 6.64602 20.7358 6.64602 18.8701C6.64602 13.8995 10.6754 9.87012 15.646 9.87012C20.6165 9.87012 24.6459 13.8995 24.6459 18.8701Z" fill="white"/>
<path d="M25.1435 0.10114L25.6796 1.58986C26.2751 3.24215 27.5762 4.54328 29.2285 5.13877L30.7172 5.67484C30.8514 5.72357 30.8514 5.91384 30.7172 5.9619L29.2285 6.49798C27.5762 7.09347 26.2751 8.3946 25.6796 10.0469L25.1435 11.5356C25.0948 11.6698 24.9045 11.6698 24.8565 11.5356L24.3204 10.0469C23.7249 8.3946 22.4238 7.09347 20.7715 6.49798L19.2828 5.9619C19.1486 5.91317 19.1486 5.72291 19.2828 5.67484L20.7715 5.13877C22.4238 4.54328 23.7249 3.24215 24.3204 1.58986L24.8565 0.10114C24.9045 -0.0337132 25.0948 -0.0337132 25.1435 0.10114Z" fill="white"/>
<path d="M25.0985 27.5022L25.4671 28.5257C25.8765 29.6616 26.771 30.5562 27.907 30.9656L28.9305 31.3341C29.0227 31.3676 29.0227 31.4984 28.9305 31.5315L27.907 31.9C26.771 32.3094 25.8765 33.204 25.4671 34.3399L25.0985 35.3634C25.065 35.4557 24.9342 35.4557 24.9011 35.3634L24.5326 34.3399C24.1232 33.204 23.2287 32.3094 22.0927 31.9L21.0692 31.5315C20.9769 31.498 20.9769 31.3672 21.0692 31.3341L22.0927 30.9656C23.2287 30.5562 24.1232 29.6616 24.5326 28.5257L24.9011 27.5022C24.9342 27.4094 25.065 27.4094 25.0985 27.5022Z" fill="white"/>
</svg>
