<svg width="12" height="12" viewBox="0 0 12 12" fill="none" xmlns="http://www.w3.org/2000/svg">
<path d="M5.9614 0.10114L6.49748 1.58986C7.09297 3.24215 8.3941 4.54328 10.0464 5.13877L11.5351 5.67484C11.6693 5.72357 11.6693 5.91384 11.5351 5.9619L10.0464 6.49798C8.3941 7.09347 7.09297 8.3946 6.49748 10.0469L5.9614 11.5356C5.91267 11.6698 5.72241 11.6698 5.67434 11.5356L5.13827 10.0469C4.54278 8.3946 3.24164 7.09347 1.58936 6.49798L0.100639 5.9619C-0.0335463 5.91317 -0.0335463 5.72291 0.100639 5.67484L1.58936 5.13877C3.24164 4.54328 4.54278 3.24215 5.13827 1.58986L5.67434 0.10114C5.72241 -0.0337132 5.91267 -0.0337132 5.9614 0.10114Z" fill="#E21833"/>
</svg>
