<?xml version="1.0" encoding="UTF-8"?>
<svg id="Layer_1" xmlns="http://www.w3.org/2000/svg" version="1.1" viewBox="0 0 48.83 48.7">
  <!-- Generator: Adobe Illustrator 30.3.0, SVG Export Plug-In . SVG Version: 2.1.3 Build 182)  -->
  <defs>
    <style>
      .st0 {
        fill: #e21833;
      }

      .st1 {
        fill: #e31e34;
      }
    </style>
  </defs>
  <path class="st1" d="M31.07,4c4.71,0,9.22,1.87,12.55,5.19,3.33,3.32,5.2,7.82,5.21,12.51,0,3.5-1.04,6.92-2.99,9.84-1.95,2.91-4.73,5.18-7.97,6.52-3.25,1.34-6.82,1.69-10.26,1.01-3.44-.68-6.61-2.37-9.09-4.85-2.48-2.48-4.18-5.63-4.86-9.07-.69-3.43-.34-6.99,1.01-10.23,1.34-3.24,3.62-6,6.54-7.94,2.92-1.95,6.36-2.98,9.87-2.98ZM31.07,5.38c-4.22,0-8.06,1.59-10.97,4.2,0,0-.02.02-.03.03-.02.02-.04.04-.06.05-.03.03-.06.05-.09.08-.13.13-.27.25-.4.38-.01.01-.02.02-.03.03-.06.06-.12.12-.18.18-2.77,2.85-4.5,6.69-4.61,10.95,0,.14,0,.27,0,.41v.24s0,.07,0,.1c.09,4.12,1.7,7.86,4.3,10.68.02.02.04.04.06.07.02.02.04.05.07.07.02.02.03.04.05.05.02.02.04.04.06.06.08.08.15.16.23.24l.03.03s.01.01.02.02c.03.03.07.07.1.1.01.01.02.02.03.03.03.03.06.05.08.08.02.02.03.03.05.05.04.04.08.07.12.11.02.02.04.04.06.06.02.02.04.04.06.05,2.75,2.51,6.36,4.09,10.34,4.26h.01s.08,0,.12,0c.03,0,.07,0,.11,0,.02,0,.05,0,.07,0,.06,0,.13,0,.19,0h.48s.08,0,.11,0c.03,0,.06,0,.09,0,.03,0,.07,0,.1,0,3.91-.13,7.47-1.63,10.22-4.03,0,0,.02-.02.03-.03.03-.02.05-.05.08-.07.02-.02.04-.03.06-.05.04-.04.09-.08.13-.12.07-.06.13-.12.19-.18.02-.02.03-.03.05-.05.03-.03.06-.06.09-.08.01-.01.03-.03.04-.04.04-.04.08-.08.12-.12.09-.09.17-.17.26-.26.01-.01.02-.03.03-.04.03-.03.06-.06.09-.09.07-.08.15-.16.22-.24.01-.01.02-.03.03-.04.03-.03.05-.06.08-.09,0,0,.02-.02.03-.03,2.42-2.75,3.92-6.31,4.05-10.22,0-.03,0-.05,0-.08v-.07s0-.1,0-.15v-.23h0v-.25c0-.06,0-.11,0-.17-.1-4.09-1.71-7.8-4.29-10.61-.01-.01-.03-.03-.04-.04-.02-.02-.05-.05-.07-.07-.04-.04-.07-.08-.11-.11-.02-.02-.03-.03-.05-.05-.03-.03-.05-.05-.07-.08-.02-.02-.03-.04-.05-.05-.03-.03-.05-.05-.07-.08-.01-.01-.03-.03-.05-.05-.08-.08-.17-.17-.26-.25-.01-.01-.02-.02-.03-.03-.03-.03-.07-.07-.1-.1-.01-.01-.03-.03-.04-.04-.03-.02-.05-.05-.08-.07-.08-.08-.17-.15-.25-.23-.01-.01-.03-.03-.04-.04-2.73-2.38-6.27-3.87-10.15-4.01-.03,0-.05,0-.08,0-.06,0-.11,0-.17,0-.04,0-.08,0-.12,0h-.24,0Z"/>
  <path class="st0" d="M30.56,15.33l6.43,6.29-.06.06.06.06-6.43,6.29h-4.41l6.36-6.35-6.36-6.35s4.41,0,4.41,0Z"/>
</svg>