<svg width="718" height="79" viewBox="0 0 718 79" fill="none" xmlns="http://www.w3.org/2000/svg">
<path d="M186.898 30.9458C197.724 30.9459 202.564 35.4088 202.564 41.4019C202.564 45.7371 199.634 49.4348 194.794 50.8374C196.959 52.6226 198.743 54.2808 201.417 56.9585L206.002 61.5483C209.441 64.9911 213.007 67.1595 217.465 67.4146V68.4341C207.149 68.9441 204.601 66.7763 199.379 61.5483L195.558 57.7231C192.883 55.1731 190.846 53.3882 189.445 52.4956C188.044 52.6231 187.025 52.6226 185.496 52.6226C184.095 52.6226 183.331 52.4956 182.44 52.4956V62.4409C182.44 65.8837 183.841 66.7769 187.153 66.7769H188.553V67.9243H171.995V66.7769H173.015C176.453 66.7768 177.727 65.8838 177.727 61.9312V37.3208C177.727 33.6234 176.835 32.603 173.397 32.603H172.123V31.4556C173.524 31.4555 177.09 31.2003 179.51 31.0728C181.93 30.9452 183.077 30.9458 186.898 30.9458ZM310.061 62.9507C311.207 66.0108 312.48 66.6489 315.409 66.6489V66.521H315.664C319.23 66.521 320.504 65.2463 320.504 62.5688V34.0054C319.103 33.1129 317.702 32.6031 315.537 32.603V31.4556H324.707L352.218 60.146V36.939C352.218 33.3686 351.199 32.7305 346.487 32.603V31.4556H360.115V32.603C355.785 32.603 354.766 33.3684 354.766 35.6636V68.3062H353.238V68.1792L323.052 36.4282V61.4204C323.052 65.6282 323.943 66.521 328.91 66.521V67.6685H315.409V67.7964H299.362V66.6489H300.89C304.201 66.6489 305.475 66.2663 305.475 64.6089C305.475 63.5889 305.093 62.8236 304.838 62.186L300.89 51.6021H288.662L285.224 60.7837C284.842 61.9312 284.078 63.7159 284.077 64.481C284.077 66.011 285.606 66.6489 288.79 66.6489H289.682V67.7964H276.181V66.6489C280.002 66.6489 280.639 66.011 282.549 60.9106L293.248 31.8384L292.739 30.563H297.833L310.061 62.9507ZM166.519 62.9507C167.665 66.0109 168.939 66.6489 171.868 66.6489V67.7964H155.821V66.6489H157.349C160.66 66.6489 161.934 66.2662 161.934 64.6089C161.934 63.5889 161.552 62.8235 161.297 62.186L157.349 51.6021H145.249L141.81 60.7837C141.428 61.9312 140.663 63.7159 140.663 64.481C140.663 66.011 142.192 66.6489 145.376 66.6489H146.268V67.7964H117.865V66.6489C120.667 66.6489 123.342 65.8836 123.087 62.8237L121.432 36.5562H121.304L106.657 67.7964H105.383L90.4817 36.5562H90.3538L88.6985 62.9507C88.5712 65.8834 90.7367 66.5214 93.4114 66.6489V67.7964H81.1838V66.6489C85.5142 66.6489 86.0238 65.7562 86.2786 60.4009L87.6799 37.5757C87.9346 33.7507 87.8067 32.6027 84.1135 32.4751V31.4556H93.0286L107.166 60.9106L121.177 31.4556H129.71V32.4751C126.908 32.7301 125.762 32.7308 125.889 34.771L127.8 61.2935C128.179 66.6002 128.557 66.6475 132.778 66.6479C136.589 66.6468 137.226 66.0063 139.135 60.9106L149.834 31.8384L149.324 30.563H154.419L166.519 62.9507ZM222.942 32.4761C218.357 32.4761 218.102 33.6236 219.758 36.3013L229.183 50.7095L237.334 36.811C239.245 33.6232 238.098 32.603 234.405 32.603V31.4556H264.463V32.603H262.298C258.477 32.603 257.458 32.9856 257.458 36.6831V63.5884C257.458 65.1184 258.096 65.7563 259.751 65.7563H268.284C271.723 65.7563 272.742 64.3537 276.436 59.2534H277.454L273.124 67.7964H247.014V66.6489H248.925C251.599 66.6488 252.618 65.7561 252.618 62.8237V36.939C252.618 33.8788 251.727 32.6031 248.033 32.603H247.524C243.575 32.8581 241.92 34.5161 240.264 37.1938L230.584 53.5151V62.314C230.584 65.3737 231.73 66.6488 235.296 66.6489H236.061V67.7964H220.013V66.6489H221.159C224.853 66.6488 225.871 65.246 225.871 62.4409V54.1528L215.428 37.9585C212.626 33.4956 211.224 32.6036 207.404 32.4761V31.3276H222.942V32.4761ZM378.71 30.9458C394.249 30.9458 400.999 38.7238 400.999 48.4146C400.999 57.2129 394.121 67.7964 379.347 67.7964H360.624V66.6489H361.644C364.828 66.6489 366.229 65.8835 366.229 62.4409V37.1938C366.229 33.3685 365.21 32.4761 361.771 32.4761H360.624V31.4556C362.789 31.3281 365.719 31.2003 368.904 31.0728C372.088 30.9453 375.654 30.9458 378.71 30.9458ZM375.781 31.9653C373.362 31.9653 371.833 32.2212 371.069 32.2212V63.3335C371.069 65.7561 371.323 66.522 375.908 66.522C383.805 66.522 387.117 65.3735 390.683 61.8032C392.848 59.6355 395.523 55.1729 395.523 49.1802C395.523 44.9725 394.249 40.1269 390.811 36.6841C388.136 34.0064 383.933 31.9654 375.781 31.9653ZM185.369 31.9653C184.223 31.9653 183.459 31.9658 182.44 32.0933H182.313V51.3472C183.714 51.4746 184.605 51.4751 186.006 51.4751C192.502 51.475 196.832 48.6697 196.832 41.6567C196.832 36.1738 194.412 31.9654 185.369 31.9653ZM146.268 49.0522H156.329L151.235 35.5356L146.268 49.0522ZM289.809 49.0522H299.871L294.777 35.5356L289.809 49.0522ZM255.038 5.69775C256.567 5.69777 257.331 5.9525 257.968 6.20752C258.35 6.335 258.605 6.46337 258.987 6.46338C259.114 6.46338 259.114 6.46294 259.241 6.33545L259.368 6.20752H260.388L261.025 10.6704H259.878L259.751 10.4155C258.987 8.50293 257.331 7.22805 255.42 7.22803C253.765 7.2281 252.619 8.12055 252.618 9.52295C252.618 11.1806 254.529 12.4558 256.567 13.731C259.114 15.2611 261.916 17.0467 261.661 20.1069C261.661 23.1671 258.986 25.4624 255.42 25.4624C254.401 25.4624 253.128 25.0797 252.237 24.8247C251.982 24.6972 251.599 24.5699 251.472 24.5698C251.345 24.5698 251.217 24.5697 251.217 24.6968L251.09 24.9526H250.071L249.307 19.7241H250.58L250.708 19.979C251.218 22.2741 253 23.804 255.165 23.8042C256.948 23.8042 258.731 22.7846 258.732 20.7446C258.732 18.9595 256.822 17.8113 254.656 16.4087C252.237 14.8786 249.562 13.0937 249.562 10.2886C249.562 7.61085 251.854 5.69775 255.038 5.69775ZM172.632 7.35596H172.25C170.722 7.48344 169.958 7.61133 169.703 7.99365C169.703 8.12115 169.576 8.24882 169.83 8.88623L174.67 20.9995L178.873 10.0337C179.255 9.26886 179.383 8.75895 179.383 8.37646C179.383 7.99394 179.382 7.4839 177.09 7.48389H176.708V6.08154H184.223V7.35596H183.841C182.44 7.35596 181.803 7.99426 181.166 9.65186L175.052 25.3354H173.142L166.774 9.396C166.01 7.61135 165.755 7.35601 164.227 7.35596H163.844V6.08154H172.632V7.35596ZM228.036 5.95361C233.131 5.95363 236.188 7.99336 236.188 11.436C236.188 13.6037 234.914 15.3891 232.749 16.2817C233.641 16.9192 234.405 17.8116 235.551 18.8315L237.844 21.1274C239.627 23.0399 241.283 23.805 243.321 24.0601H243.702V25.3354H242.047C237.844 25.3354 236.443 24.1878 234.023 21.7651L232.113 19.8521C231.094 18.8321 230.075 17.9393 229.311 17.4292H226.253V21.8921C226.253 23.2947 226.636 23.6772 228.164 23.6772H229.183V24.9526H220.268V23.6772H221.158C222.559 23.6772 223.07 23.4223 223.07 21.6372V9.396C223.07 7.86596 222.815 7.48294 221.286 7.48291H220.268V6.2085H220.65C221.286 6.2085 222.432 6.20801 223.578 6.08057H224.343C225.617 5.95307 226.126 5.95361 228.036 5.95361ZM366.865 5.69775C372.852 5.69778 377.437 9.7784 377.437 15.0063C377.437 20.8717 372.852 25.3343 366.739 25.3345C360.625 25.3345 355.912 21.2544 355.912 15.8989C355.912 10.0334 360.497 5.69779 366.865 5.69775ZM91.1184 7.35596H90.4817C88.9534 7.35596 88.5716 7.73873 88.5715 9.14111V17.1743C88.5715 20.9996 90.8636 23.0404 94.8118 23.0405C97.6138 23.0405 101.053 22.0197 101.053 17.1743V10.4165C101.053 7.73885 100.671 7.48347 98.6331 7.35596H98.2512V6.2085H105.893V7.48389H105.511C103.728 7.48389 103.218 8.12128 103.218 9.77881V17.4292C103.218 20.9995 100.926 25.2073 94.303 25.2075C88.9536 25.2075 85.5139 22.2751 85.5139 17.5571V9.14111C85.5139 7.61126 85.2592 7.35596 83.3489 7.35596H82.967V6.08154H91.1184V7.35596ZM132.767 19.8521V9.26904C132.767 7.86648 132.639 7.48389 130.347 7.48389H129.837V6.08154H137.352V7.35596H136.97C134.678 7.35597 134.678 7.73865 134.678 8.50342V25.0806H133.404L133.277 24.9526L119.012 9.90674V21.3823C119.012 23.1675 119.266 23.5503 121.559 23.5503H121.941V24.8257H114.426V23.5503H114.936C116.719 23.5503 116.974 23.0401 116.974 22.02V7.8667C116.464 7.61168 115.827 7.35597 114.936 7.35596H114.554V6.08154H119.649L132.767 19.8521ZM293.757 5.95264C293.884 6.0801 294.139 6.08057 294.267 6.08057H308.278C308.655 6.08048 308.783 5.95579 308.786 5.95264V5.69775H310.061L310.824 11.1812H309.551V10.9263C309.042 8.24869 308.532 7.9927 307.768 7.99268H303.055V22.019C303.055 23.2942 303.31 23.8042 304.966 23.8042H306.366V25.0796H296.432V23.8042H297.833C299.489 23.8042 299.743 23.2941 299.743 22.019V7.99268H295.031C294.267 7.99268 293.758 8.24858 293.248 10.9263V11.1812H291.975L292.484 5.69775H293.757V5.95264ZM327.892 7.61084H327.509C326.109 7.61086 325.854 7.73825 325.854 7.86572C325.726 7.99323 325.726 8.12118 326.236 8.88623L330.567 15.5161L334.387 9.01318C334.896 8.24829 334.77 7.99325 334.77 7.86572C334.642 7.73821 334.387 7.48292 333.24 7.48291V6.33545H340.501V7.61084H340.118C338.335 7.7384 337.571 8.50379 336.807 9.77881L331.967 17.812V22.019C331.967 23.2942 332.222 23.8052 333.878 23.8052H334.642V25.0796H325.854V23.8052H326.745C328.401 23.8051 328.656 23.2945 328.656 22.147V18.1938L323.561 10.1606C322.16 7.86575 321.523 7.61085 319.867 7.61084H319.486V6.33545H327.892V7.61084ZM208.55 10.9263H207.277V10.5444C206.895 8.12225 206.257 7.8668 205.493 7.8667H199.762V14.2417H204.602C205.238 14.2416 205.748 14.1138 205.875 12.4565V12.0737H207.149V18.4497H205.875V18.0669C205.621 16.1546 205.11 16.1548 204.219 16.1548H199.634V21.8931C199.634 23.0402 199.889 23.1675 200.781 23.1675H205.239C206.894 23.1674 207.403 22.657 208.167 20.1069L208.55 19.7251H209.823L209.314 24.8257H193.139V23.5503H194.284C196.322 23.5503 196.577 23.0402 196.577 21.5103V9.26904C196.577 7.86657 196.323 7.35604 194.667 7.35596H193.648V6.08154H208.295L208.55 10.9263ZM154.292 7.48291H153.909C152.254 7.48293 151.872 7.61101 151.872 9.396V21.6372C151.872 23.1671 152.127 23.5493 153.909 23.5493H154.292V24.8247H146.523V23.5493H146.905C148.433 23.4218 148.688 23.1672 148.688 21.3823V9.01318C148.688 7.73827 148.433 7.48346 146.905 7.35596H146.523V6.2085H154.292V7.48291ZM281.021 7.48291H280.639C278.983 7.48291 278.601 7.61089 278.601 9.396V21.6372C278.601 23.1672 278.856 23.5493 280.639 23.5493H281.021V24.8247H273.251V23.5493H273.634C275.162 23.4218 275.417 23.1671 275.417 21.3823V9.01318C275.417 7.73835 275.162 7.48347 273.634 7.35596H273.251V6.2085H281.021V7.48291ZM397.561 10.2886H396.287V9.90674C396.287 8.37666 395.778 7.86671 394.249 7.8667H389.028V13.9868H394.376C395.013 13.9868 395.523 13.7316 395.651 12.4565V12.0737H396.924V17.9399H395.651V17.5571C395.651 16.0271 395.141 15.772 393.994 15.772H389.028V21.5103C389.028 22.9127 389.155 23.4224 391.193 23.4224H391.574V24.6978H383.805V23.4224H384.188C385.716 23.4223 385.971 23.2945 385.971 20.9995V9.65186C385.971 7.86689 385.843 7.35604 384.188 7.35596H383.805V6.08154H397.561V10.2886ZM366.102 7.1001C361.135 7.1001 359.351 11.8181 359.351 14.8784C359.351 19.9789 362.79 23.8042 367.375 23.8042C371.96 23.804 373.998 19.7242 373.998 15.8989C373.998 10.6712 370.687 7.10036 366.102 7.1001ZM226.253 16.1538H227.655C230.966 16.1538 232.622 14.7512 232.622 11.6909C232.622 8.63096 230.966 7.2281 227.273 7.22803H226.253V16.1538Z" fill="black"/>
<path d="M36.2236 69.072C18.3923 69.072 4 54.6631 4 36.8114C4 19.0872 18.3923 4.55078 36.2236 4.55078C53.9274 4.55078 68.4471 18.9597 68.4471 36.8114C68.4471 54.6631 53.9274 69.072 36.2236 69.072Z" fill="url(#paint0_radial_11928_10399)"/>
<path d="M36.2236 69.072C18.3923 69.072 4 54.6631 4 36.8114C4 19.0872 18.3923 4.55078 36.2236 4.55078C53.9274 4.55078 68.4471 18.9597 68.4471 36.8114C68.4471 54.6631 53.9274 69.072 36.2236 69.072ZM36.2236 5.06083C18.6471 5.06083 4.3821 19.3422 4.3821 36.9389C4.3821 54.5356 18.6471 68.817 36.2236 68.817C53.8001 68.817 68.0651 54.5356 68.0651 36.9389C67.9377 19.3422 53.6727 5.06083 36.2236 5.06083Z" fill="#CCCCCC"/>
<path d="M68.1924 36.1738C68.1924 36.3013 67.6829 36.8114 67.0461 37.1939C66.2819 37.704 65.0082 38.0865 63.6072 38.469C62.0788 38.8516 60.2957 39.2341 58.2578 39.4891C56.22 39.7442 53.9274 39.9992 51.5074 40.2542C48.4507 40.5092 46.4128 40.6368 43.9928 40.7643C41.3182 40.8918 38.6435 40.8918 35.8414 40.8918C35.8414 41.2743 35.8414 41.6569 35.8414 41.9119C35.8414 44.4621 35.8414 46.7573 35.8414 49.0526C35.9688 61.2937 35.9688 61.2937 36.3509 68.817C54.0548 68.817 68.3197 54.5356 68.3197 36.8114C68.1924 36.8114 68.1924 36.4289 68.1924 36.1738Z" fill="#FFD520"/>
<path d="M35.7141 42.0387C35.7141 44.589 35.7141 46.8842 35.7141 49.1794C40.8087 54.0249 40.8087 54.0249 42.974 56.1926C43.4834 52.1122 43.8655 47.2667 43.8655 41.9112C43.8655 41.5287 43.8655 41.1461 43.8655 40.8911C40.6814 41.0186 38.5162 41.0186 35.7141 41.0186C35.7141 41.2737 35.7141 41.6562 35.7141 42.0387Z" fill="black"/>
<path d="M47.4319 61.5485C46.2856 59.7633 45.2666 58.4882 42.974 56.0654C41.8278 63.8437 39.9173 68.6891 37.4973 68.8167C37.752 68.8167 38.0068 68.8167 38.2615 68.8167C38.5162 68.8167 38.771 68.8167 39.0257 68.6891C42.4646 68.4341 45.2666 65.8839 47.4319 61.5485Z" fill="black"/>
<path d="M50.998 48.542C50.998 48.542 49.2149 58.1054 47.4318 61.6758C48.4507 63.5884 48.4507 64.3535 48.0686 65.6286C51.1254 63.2059 53.6727 59.7631 55.4558 55.3001C54.4369 52.8774 53.6727 51.7298 50.998 48.542Z" fill="black"/>
<path d="M41.9551 68.4347C42.5919 68.3072 42.5919 68.1797 43.8656 67.9247L44.6297 67.6697C47.0497 66.9046 47.4318 66.5221 48.196 65.502C46.0308 67.0321 43.8656 68.0522 41.3182 68.4347H41.9551Z" fill="black"/>
<path d="M56.0926 60.5284C60.6778 55.3004 63.4799 47.9047 63.4799 39.4888C63.4799 39.1063 63.4799 38.7238 63.4799 38.4688C61.9515 38.8513 60.1684 39.2338 58.1305 39.4888C58.1305 39.8714 58.1305 40.2539 58.1305 40.5089C58.1305 45.992 57.2389 50.9649 55.4558 55.1729C56.6021 57.5956 56.6021 58.7432 56.0926 60.5284Z" fill="black"/>
<path d="M51.5075 40.2539C48.4507 40.5089 46.4129 40.6364 43.9929 40.764C48.3234 45.3544 49.3423 46.3745 51.1254 48.5422C51.3801 46.247 51.5075 43.8242 51.5075 41.4015C51.5075 41.019 51.5075 40.6364 51.5075 40.2539Z" fill="black"/>
<path d="M29.2184 6.46332C31.0015 5.69825 32.6573 4.93318 36.2235 4.80566C33.8036 5.06069 31.3836 5.69825 29.2184 6.46332Z" fill="black"/>
<path d="M57.621 39.4888C55.9652 39.2338 54.5642 36.4285 55.3284 33.6233C53.0358 35.2809 50.3611 31.9656 50.7432 28.7778C50.998 27.1201 52.0169 25.7175 53.9274 26.3551C53.1632 23.8048 52.2716 21.2546 51.1253 18.9593C49.4696 19.2144 47.6865 19.3419 45.776 19.4694C47.4317 22.0196 45.776 24.4424 43.4834 24.0598C41.7003 23.8048 40.1719 22.0196 40.554 19.8519C39.1529 20.872 36.2235 20.4895 35.9688 17.4292C35.8414 23.9323 35.8414 32.2206 35.8414 40.8915C44.3749 41.019 54.3095 40.1264 58.2578 39.4888C58.0031 39.4888 57.7484 39.4888 57.621 39.4888Z" fill="#E03A3E"/>
<path d="M15.5903 45.8645C18.0102 44.9719 20.9397 49.0523 19.9207 51.8575C19.4113 53.1327 18.1376 53.5152 16.8639 52.7501C17.6281 55.1728 18.5197 57.3406 19.5386 59.2532C21.1944 59.5083 23.1049 59.6358 25.1427 59.8908C23.487 57.8506 24.7606 56.1929 27.0532 56.3205C28.9637 56.448 31.511 57.9781 30.8742 60.1458C32.53 59.3808 35.4594 60.0183 35.8415 62.186C35.7141 57.3406 35.7141 50.3274 35.7141 42.0391C35.7141 41.6565 35.7141 41.4015 35.7141 41.019C33.0394 41.019 30.2374 40.8915 27.5627 40.764C21.8312 40.5089 17.8829 40.2539 13.043 39.3613C15.4629 40.1264 16.2271 43.8243 15.5903 45.8645Z" fill="#E03A3E"/>
<path d="M51.3802 16.4092C51.7623 16.4092 52.0171 16.2817 52.2718 16.2817C54.0549 15.8992 58.258 15.0066 58.258 13.7314C58.258 13.7314 59.9138 15.3891 61.0601 17.6843C61.1874 17.9393 61.3148 18.1944 61.4422 18.5769C61.5695 18.9594 61.6969 19.4695 61.6969 19.7245C61.6969 20.3621 61.1874 20.4896 60.8053 20.2346H60.678C59.0222 19.4695 58.5127 17.9393 58.1306 17.3018C57.2391 17.5568 55.9654 18.1944 54.8191 18.4494C54.6918 18.4494 54.437 18.5769 54.3097 18.5769C55.7107 20.8721 56.9843 23.4224 57.8759 26.1001C59.5317 24.4425 61.9516 27.5028 62.079 30.4355C62.2063 32.2207 61.3148 33.7509 59.7864 33.1133C61.0601 35.536 60.678 38.9789 58.258 39.7439C57.7485 31.7107 56.4749 24.825 51.3802 16.4092Z" fill="#E03A3E"/>
<path d="M51.3801 16.4092C47.3044 10.1611 44.1203 7.86589 39.9172 6.33574C39.153 5.9532 36.3509 4.93311 36.0962 4.93311C36.8604 5.9532 38.2614 6.59076 38.6435 6.71828C38.5162 7.10081 38.6435 7.86589 39.9172 8.88599C40.1719 9.0135 40.2993 9.14101 40.554 9.26852C42.5919 10.4161 43.1013 9.52355 43.2287 9.14101C43.8655 9.52355 45.1392 10.4161 46.5402 12.0738C47.3044 12.9664 48.0686 13.859 48.5781 14.624C47.3044 14.7515 45.6487 14.8791 43.8655 15.0066C43.7382 12.9664 42.3371 11.9463 41.3182 11.5637C39.2804 10.7987 38.6435 13.2214 39.5351 14.8791C37.8793 13.9865 36.0962 14.7515 35.7141 17.3018C42.2098 17.3018 46.5402 17.0468 51.3801 16.4092Z" fill="#E03A3E"/>
<path d="M51.7622 10.5437C51.7622 10.5437 51.7622 10.4162 51.7622 10.2887C51.7622 10.1612 51.8896 10.1612 51.8896 10.1612C51.8896 10.1612 51.8896 10.0337 52.017 10.0337C52.3991 9.90615 53.2906 9.77864 55.9653 11.5638C50.3612 7.2284 44.5024 5.44323 39.4077 4.93318C38.6435 4.80566 37.3699 4.80566 37.3699 4.80566C39.0256 4.93318 40.0446 5.31571 40.2993 5.44323C40.554 5.57074 40.6814 5.57074 40.8088 5.69825C41.1909 5.69825 41.4456 5.82576 41.955 5.95327C42.4645 6.08079 43.2287 6.46332 43.9929 6.71835C44.7571 7.10088 45.776 7.86596 45.776 8.24849C45.6487 8.37601 45.5213 8.37601 45.0118 8.24849C46.9223 9.65113 49.597 12.2014 51.2528 13.9865C52.3991 13.7315 54.0548 13.604 54.819 13.349C54.6916 13.4765 52.2717 11.6913 51.7622 10.5437Z" fill="#E03A3E"/>
<path d="M19.1565 61.0384C16.3545 60.5284 14.8261 60.1458 13.8072 59.6358C13.6798 59.5083 13.5524 59.5083 13.5524 59.5083C13.5524 59.5083 12.024 57.9781 10.623 56.1929C9.60409 54.9178 8.83989 53.5152 8.71252 53.3877C8.71252 53.3877 8.96726 53.3877 9.09462 53.3877C10.4956 53.8977 12.7882 57.8506 12.7882 57.8506C13.6798 58.2331 14.8261 58.4882 16.2271 58.7432C14.9535 56.703 13.8072 54.5353 12.9156 52.1126C10.8777 53.1327 8.33043 47.9046 9.22199 45.6094C9.47672 45.0994 9.98618 44.2068 11.2598 45.2269C10.2409 42.9317 10.4956 39.3613 12.9156 39.3613C13.043 47.1396 14.1893 53.7702 19.1565 61.0384Z" fill="#E03A3E"/>
<path d="M35.8416 62.5688C35.5868 63.7164 34.0584 64.7365 31.7658 63.8439C32.7848 65.2465 31.8932 66.3942 30.1101 66.0116C28.7091 65.7566 27.0533 64.609 26.9259 63.4614C25.1428 63.3339 23.6144 63.2064 22.2134 62.9513C23.6144 64.4815 25.0154 65.7566 26.6712 66.7767C26.9259 66.6492 27.1807 66.7767 28.0722 67.0317C29.3459 67.4143 30.4922 68.0518 31.6385 68.4344H31.3837C30.4922 68.3068 30.2374 68.1793 29.728 68.1793C27.308 67.6693 23.2323 66.3942 19.1566 60.9111C24.1239 61.6762 28.9638 62.0587 35.8416 62.0587C35.8416 62.3138 35.8416 62.4413 35.8416 62.5688Z" fill="#E03A3E"/>
<path d="M36.0962 4.80566C18.9018 4.80566 4.50942 18.832 4.12732 36.1737C4.12732 36.1737 4.25469 36.5562 5.01888 36.9388C5.65571 37.3213 6.67464 37.8313 7.9483 38.2139C9.60405 38.5964 11.2598 38.9789 12.9156 39.234C17.7555 39.999 21.7038 40.3816 27.4353 40.6366C30.11 40.7641 32.912 40.8916 35.5867 40.8916C35.5867 39.234 35.5867 29.9256 35.5867 20.9997C35.5867 19.8521 35.5867 18.577 35.5867 17.4294C35.9688 11.5638 35.9688 5.57074 36.0962 4.80566Z" fill="#FFD520"/>
<path d="M51.5074 64.9912C49.7243 66.0113 49.3422 66.0113 46.9223 67.0314C46.2854 67.2865 45.6486 67.414 44.8844 67.669C49.2148 66.5214 55.0737 61.6759 56.0926 60.5283C55.5831 61.6759 55.201 62.441 53.9274 63.4611C53.5453 63.7161 52.0169 64.7362 51.5074 64.9912Z" fill="black"/>
<path d="M8.07566 38.2137C6.802 37.8312 5.78307 37.4486 5.14624 36.9386C5.40097 25.4625 11.8966 15.134 21.1943 9.52344C19.0291 11.4361 18.0102 12.7112 16.8639 15.389C11.6419 21.3821 8.33039 29.5429 8.07566 38.2137Z" fill="black"/>
<path d="M21.3218 9.52362C23.6144 7.86596 25.0154 6.59084 28.709 5.69825C31.2563 5.06069 33.5489 4.80566 36.2236 4.80566C30.7469 5.06069 25.6522 6.84586 21.3218 9.52362Z" fill="black"/>
<path d="M19.5386 40.1268C17.246 39.8717 14.9535 39.6167 13.043 39.2342C13.1703 33.3686 14.444 27.8856 16.4818 22.9126C17.246 26.1004 18.0102 27.8856 20.3028 31.7109C19.7934 34.5162 19.5386 37.3215 19.5386 40.1268Z" fill="black"/>
<path d="M35.8415 17.4293C35.8415 20.9996 35.8415 24.57 35.7142 27.3753C35.7142 30.1805 35.7142 32.2207 35.7142 32.6033C32.53 29.2879 30.8743 27.5028 28.5817 24.57C30.1101 14.624 32.9121 6.71828 36.0963 4.93311C35.9689 5.69818 35.9689 11.4362 35.8415 17.4293Z" fill="black"/>
<path d="M24.6332 17.0469C22.5953 21.2548 21.0669 26.3553 20.3027 31.8383C22.2132 34.7711 23.4869 36.4287 27.3079 40.7642C27.3079 35.0261 27.8173 29.5431 28.5815 24.4426C26.2889 21.2548 25.5247 19.7246 24.6332 17.0469Z" fill="black"/>
<path d="M66.9187 37.1939C66.9187 37.5765 66.9187 37.959 66.9187 38.214C66.9187 49.5626 61.4419 58.9985 52.7811 64.2265L52.6537 64.354C56.7294 61.8038 61.824 57.5959 65.1355 50.7102C68.5744 43.8246 68.1923 36.1738 68.1923 36.1738C68.065 36.4289 67.5555 36.8114 66.9187 37.1939Z" fill="black"/>
<path d="M29.2185 6.46338C24.506 8.24855 20.3029 11.4364 16.9914 15.3892C16.0998 18.322 16.0998 19.9797 16.4819 23.04C18.5198 18.1945 21.4492 13.9866 24.8881 10.7988C25.907 9.01362 26.5438 7.86601 29.2185 6.46338Z" fill="black"/>
<path d="M24.6333 17.0468C23.9964 14.3691 23.9964 13.094 24.888 10.7987C28.1995 7.73844 32.0205 5.44323 36.2235 4.80566C31.6384 5.95327 27.5627 10.6712 24.6333 17.0468Z" fill="black"/>
<path d="M650.205 64.1829C650.205 68.8229 646.445 70.3829 642.325 70.3829C639.485 70.3829 636.405 69.2629 634.285 67.7029L636.165 64.5829C638.125 65.9429 640.325 66.6629 642.285 66.6629C644.885 66.6629 646.125 65.8229 646.125 64.3429C646.125 62.7429 644.285 61.9829 641.245 60.8229C636.725 59.0629 635.085 57.5429 635.085 54.2229C635.085 50.4629 638.045 48.5029 642.245 48.5029C644.885 48.5029 647.485 49.4629 649.365 50.8229L647.565 53.9829C645.845 52.7829 644.125 52.1829 642.125 52.1829C640.125 52.1829 639.245 52.9829 639.245 54.1029C639.245 55.1429 639.965 55.9029 643.125 57.1429C647.805 58.9429 650.205 60.2229 650.205 64.1829Z" fill="#E21833"/>
<path d="M629.593 69.9429H625.473V58.0629C625.473 53.8229 623.873 52.3029 621.153 52.3029C618.393 52.3029 616.833 54.2629 616.833 57.6629V69.9429H612.713V48.9429H616.833V50.9429C617.873 49.4229 619.953 48.5029 622.113 48.5029C626.993 48.5029 629.593 51.7029 629.593 57.9029V69.9429Z" fill="#E21833"/>
<path d="M607.62 59.3429C607.62 66.3029 603.54 70.3829 598.14 70.3829C592.86 70.3829 588.9 66.0229 588.9 59.4629C588.9 52.5829 592.98 48.5029 598.26 48.5029C603.62 48.5029 607.62 52.7829 607.62 59.3429ZM603.46 59.4629C603.46 55.1829 601.42 52.4229 598.1 52.4229C594.98 52.4229 593.06 55.1829 593.06 59.3429C593.06 63.9429 595.18 66.4629 598.3 66.4629C601.42 66.4629 603.46 63.3029 603.46 59.4629Z" fill="#E21833"/>
<path d="M584.234 43.5828C584.234 45.0228 583.034 46.2228 581.594 46.2228C580.114 46.2228 578.914 45.0228 578.914 43.5828C578.914 42.1028 580.114 40.9028 581.594 40.9028C583.034 40.9028 584.234 42.1028 584.234 43.5828ZM583.634 69.9428H579.514V48.9428H583.634V69.9428Z" fill="#E21833"/>
<path d="M574.034 64.1829C574.034 68.8229 570.274 70.3829 566.154 70.3829C563.314 70.3829 560.234 69.2629 558.114 67.7029L559.994 64.5829C561.954 65.9429 564.154 66.6629 566.114 66.6629C568.714 66.6629 569.954 65.8229 569.954 64.3429C569.954 62.7429 568.114 61.9829 565.074 60.8229C560.554 59.0629 558.914 57.5429 558.914 54.2229C558.914 50.4629 561.874 48.5029 566.074 48.5029C568.714 48.5029 571.314 49.4629 573.194 50.8229L571.394 53.9829C569.674 52.7829 567.954 52.1829 565.954 52.1829C563.954 52.1829 563.074 52.9829 563.074 54.1029C563.074 55.1429 563.794 55.9029 566.954 57.1429C571.634 58.9429 574.034 60.2229 574.034 64.1829Z" fill="#E21833"/>
<path d="M554.463 64.1829C554.463 68.8229 550.703 70.3829 546.583 70.3829C543.743 70.3829 540.663 69.2629 538.543 67.7029L540.423 64.5829C542.383 65.9429 544.583 66.6629 546.543 66.6629C549.143 66.6629 550.383 65.8229 550.383 64.3429C550.383 62.7429 548.543 61.9829 545.503 60.8229C540.983 59.0629 539.343 57.5429 539.343 54.2229C539.343 50.4629 542.303 48.5029 546.503 48.5029C549.143 48.5029 551.743 49.4629 553.623 50.8229L551.823 53.9829C550.103 52.7829 548.383 52.1829 546.383 52.1829C544.383 52.1829 543.503 52.9829 543.503 54.1029C543.503 55.1429 544.223 55.9029 547.383 57.1429C552.063 58.9429 554.463 60.2229 554.463 64.1829Z" fill="#E21833"/>
<path d="M534.117 43.5828C534.117 45.0228 532.917 46.2228 531.477 46.2228C529.997 46.2228 528.797 45.0228 528.797 43.5828C528.797 42.1028 529.997 40.9028 531.477 40.9028C532.917 40.9028 534.117 42.1028 534.117 43.5828ZM533.517 69.9428H529.397V48.9428H533.517V69.9428Z" fill="#E21833"/>
<path d="M523.264 69.9429H519.144V58.0629C519.144 53.8229 517.824 52.3029 515.104 52.3029C512.344 52.3029 511.064 54.2629 511.064 57.6629V69.9429H506.944V58.0629C506.944 53.8229 505.624 52.3029 502.904 52.3029C500.144 52.3029 498.864 54.2629 498.864 57.6629V69.9429H494.744V48.9429H498.864V50.9429C499.904 49.4229 501.704 48.5029 503.864 48.5029C506.704 48.5029 508.504 49.5829 509.624 51.5829C511.144 49.7029 512.784 48.5029 516.064 48.5029C520.944 48.5029 523.264 51.7029 523.264 57.9029V69.9429Z" fill="#E21833"/>
<path d="M488.652 69.9427H484.572V67.9427C483.052 69.3427 481.292 70.3827 479.092 70.3827C474.572 70.3827 471.012 67.1027 471.012 59.1027C471.012 51.9027 474.932 48.5027 479.292 48.5027C481.412 48.5027 483.412 49.6227 484.572 50.9027V42.9027L488.652 40.7827V69.9427ZM484.612 63.9027V55.0627C483.692 53.8227 481.772 52.3027 479.692 52.3027C476.732 52.3027 475.132 54.5427 475.132 58.9827C475.132 64.2627 476.812 66.5827 479.852 66.5827C481.812 66.5827 483.532 65.2627 484.612 63.9027Z" fill="#E21833"/>
<path d="M467.601 69.9429H463.121L460.761 63.3029H449.561L447.241 69.9429H442.881L452.961 41.9429H457.401L467.601 69.9429ZM459.481 59.5429L457.241 53.1029C456.561 51.1029 455.441 47.8629 455.121 46.6629C454.801 47.8629 453.801 51.0629 453.081 53.1429L450.841 59.5429H459.481Z" fill="#E21833"/>
<path d="M715.69 23.0229C715.69 23.7829 715.61 24.4629 715.57 24.9029H701.69C702.13 28.9429 704.41 30.6629 706.97 30.6629C708.73 30.6629 710.13 30.0229 711.53 28.9829L713.97 31.6229C712.13 33.3829 709.93 34.3829 706.73 34.3829C701.81 34.3829 697.65 30.4229 697.65 23.4629C697.65 16.3429 701.41 12.5029 706.85 12.5029C712.81 12.5029 715.69 17.3429 715.69 23.0229ZM711.53 21.5029C711.33 18.6229 709.97 16.2229 706.57 16.2229C703.81 16.2229 702.13 18.1429 701.77 21.5029H711.53Z" fill="#E21833"/>
<path d="M693.819 29.7827L693.339 33.4227C692.339 33.9827 690.939 34.3827 689.299 34.3827C686.379 34.3827 684.579 32.5827 684.579 28.8227V16.7027H681.579V12.9427H684.579V6.94272L688.619 4.78271V12.9427H693.819V16.7027H688.619V28.1027C688.619 30.0627 689.259 30.6227 690.779 30.6227C691.859 30.6227 693.059 30.2227 693.819 29.7827Z" fill="#E21833"/>
<path d="M677.387 33.9429H673.347V31.8629C671.907 33.3029 669.867 34.3829 667.587 34.3829C664.187 34.3829 660.307 32.4629 660.307 27.3029C660.307 22.6229 663.907 20.5029 668.667 20.5029C670.627 20.5029 672.187 20.7829 673.347 21.3029V19.7429C673.347 17.4629 671.947 16.1829 669.387 16.1829C667.227 16.1829 665.547 16.5829 663.907 17.5029L662.307 14.3829C664.307 13.1429 666.547 12.5029 669.507 12.5029C674.187 12.5029 677.387 14.7829 677.387 19.5429V33.9429ZM673.347 27.9829V24.9829C672.227 24.4229 670.787 24.0629 668.547 24.0629C665.907 24.0629 664.227 25.2629 664.227 27.1829C664.227 29.2629 665.547 30.6629 668.267 30.6629C670.467 30.6629 672.387 29.3029 673.347 27.9829Z" fill="#E21833"/>
<path d="M655.214 33.9429H651.094V31.9429C650.054 33.4629 647.974 34.3829 645.814 34.3829C640.934 34.3829 638.334 31.1829 638.334 24.9829V12.9429H642.454V24.8229C642.454 29.0629 644.054 30.5829 646.774 30.5829C649.534 30.5829 651.094 28.6229 651.094 25.2229V12.9429H655.214V33.9429Z" fill="#E21833"/>
<path d="M632.402 33.9427H628.322V31.9427C626.802 33.3427 625.042 34.3827 622.842 34.3827C618.322 34.3827 614.762 31.1027 614.762 23.1027C614.762 15.9027 618.682 12.5027 623.042 12.5027C625.162 12.5027 627.162 13.6227 628.322 14.9027V6.90271L632.402 4.78271V33.9427ZM628.362 27.9027V19.0627C627.442 17.8227 625.522 16.3027 623.442 16.3027C620.482 16.3027 618.882 18.5427 618.882 22.9827C618.882 28.2627 620.562 30.5827 623.602 30.5827C625.562 30.5827 627.282 29.2627 628.362 27.9027Z" fill="#E21833"/>
<path d="M609.769 33.9429H605.729V31.8629C604.289 33.3029 602.249 34.3829 599.969 34.3829C596.569 34.3829 592.689 32.4629 592.689 27.3029C592.689 22.6229 596.289 20.5029 601.049 20.5029C603.009 20.5029 604.569 20.7829 605.729 21.3029V19.7429C605.729 17.4629 604.329 16.1829 601.769 16.1829C599.609 16.1829 597.929 16.5829 596.289 17.5029L594.689 14.3829C596.689 13.1429 598.929 12.5029 601.889 12.5029C606.569 12.5029 609.769 14.7829 609.769 19.5429V33.9429ZM605.729 27.9829V24.9829C604.609 24.4229 603.169 24.0629 600.929 24.0629C598.289 24.0629 596.609 25.2629 596.609 27.1829C596.609 29.2629 597.929 30.6629 600.649 30.6629C602.849 30.6629 604.769 29.3029 605.729 27.9829Z" fill="#E21833"/>
<path d="M590.857 13.3829L589.777 17.3029C588.897 16.8229 587.977 16.5429 586.617 16.5429C584.017 16.5429 582.497 18.3829 582.497 21.9429V33.9429H578.377V12.9429H582.497V14.9429C583.457 13.5429 585.217 12.5029 587.297 12.5029C588.977 12.5029 590.017 12.8229 590.857 13.3829Z" fill="#E21833"/>
<path d="M572.284 31.9429C572.284 38.3429 569.964 41.4229 562.364 41.6629L560.964 38.5429C566.884 38.2629 568.164 36.6629 568.164 32.3029V31.9429C566.644 33.3429 564.924 34.3829 562.724 34.3829C558.244 34.3829 554.644 31.1029 554.644 23.1029C554.644 15.9029 558.604 12.5029 562.924 12.5029C565.044 12.5029 567.044 13.6229 568.164 14.9029V12.9429H572.284V31.9429ZM568.244 27.9029V19.0629C567.324 17.8229 565.404 16.3029 563.324 16.3029C560.364 16.3029 558.764 18.5429 558.764 22.9829C558.764 28.2629 560.444 30.5829 563.484 30.5829C565.444 30.5829 567.164 29.2629 568.244 27.9029Z" fill="#E21833"/>
<path d="M552.459 13.3829L551.379 17.3029C550.499 16.8229 549.579 16.5429 548.219 16.5429C545.619 16.5429 544.099 18.3829 544.099 21.9429V33.9429H539.979V12.9429H544.099V14.9429C545.059 13.5429 546.819 12.5029 548.899 12.5029C550.579 12.5029 551.619 12.8229 552.459 13.3829Z" fill="#E21833"/>
<path d="M534.87 23.0229C534.87 23.7829 534.79 24.4629 534.75 24.9029H520.87C521.31 28.9429 523.59 30.6629 526.15 30.6629C527.91 30.6629 529.31 30.0229 530.71 28.9829L533.15 31.6229C531.31 33.3829 529.11 34.3829 525.91 34.3829C520.99 34.3829 516.83 30.4229 516.83 23.4629C516.83 16.3429 520.59 12.5029 526.03 12.5029C531.99 12.5029 534.87 17.3429 534.87 23.0229ZM530.71 21.5029C530.51 18.6229 529.15 16.2229 525.75 16.2229C522.99 16.2229 521.31 18.1429 520.95 21.5029H530.71Z" fill="#E21833"/>
<path d="M511.738 33.9427H507.658V31.9427C506.138 33.3427 504.378 34.3827 502.178 34.3827C497.658 34.3827 494.098 31.1027 494.098 23.1027C494.098 15.9027 498.018 12.5027 502.378 12.5027C504.498 12.5027 506.498 13.6227 507.658 14.9027V6.90271L511.738 4.78271V33.9427ZM507.698 27.9027V19.0627C506.778 17.8227 504.858 16.3027 502.778 16.3027C499.818 16.3027 498.218 18.5427 498.218 22.9827C498.218 28.2627 499.898 30.5827 502.938 30.5827C504.898 30.5827 506.618 29.2627 507.698 27.9027Z" fill="#E21833"/>
<path d="M489.085 33.9429H484.965V22.0629C484.965 17.8229 483.365 16.3029 480.645 16.3029C477.885 16.3029 476.325 18.2629 476.325 21.6629V33.9429H472.205V12.9429H476.325V14.9429C477.365 13.4229 479.445 12.5029 481.605 12.5029C486.485 12.5029 489.085 15.7029 489.085 21.9029V33.9429Z" fill="#E21833"/>
<path d="M465.721 22.2629C465.721 30.1029 461.921 34.3829 454.961 34.3829C448.041 34.3829 444.441 29.9029 444.441 22.1829V5.94287H448.641V22.0629C448.641 27.3429 450.841 30.1829 455.041 30.1829C459.441 30.1829 461.521 27.4629 461.521 22.3429V5.94287H465.721V22.2629Z" fill="#E21833"/>
<line x1="421.5" y1="2.18557e-08" x2="421.5" y2="69.9429" stroke="#E6E6E6"/>
<defs>
<radialGradient id="paint0_radial_11928_10399" cx="0" cy="0" r="1" gradientUnits="userSpaceOnUse" gradientTransform="translate(36.2071 36.8489) scale(32.2066 32.2436)">
<stop stop-color="white"/>
<stop offset="0.5149" stop-color="#FDFDFD"/>
<stop offset="0.7003" stop-color="#F6F6F6"/>
<stop offset="0.8325" stop-color="#EBEBEB"/>
<stop offset="0.9387" stop-color="#DADADA"/>
<stop offset="1" stop-color="#CCCCCC"/>
</radialGradient>
</defs>
</svg>
