<?xml version="1.0" encoding="UTF-8"?>
<svg id="Layer_1" xmlns="http://www.w3.org/2000/svg" xmlns:xlink="http://www.w3.org/1999/xlink" version="1.1" viewBox="0 0 718 79">
  <!-- Generator: Adobe Illustrator 30.3.0, SVG Export Plug-In . SVG Version: 2.1.3 Build 182)  -->
  <defs>
    <style>
      .st0 {
        fill: url(#radial-gradient);
      }

      .st1 {
        fill: #e21833;
      }

      .st2 {
        fill: #ccc;
      }

      .st3 {
        fill: #9e9e9e;
        stroke: #afaeae;
      }

      .st4 {
        fill: #e03a3e;
      }

      .st5 {
        fill: #ffd520;
      }
    </style>
    <radialGradient id="radial-gradient" cx="-135.65" cy="525.73" fx="-135.65" fy="525.73" r="1" gradientTransform="translate(4405.13 16988.39) scale(32.21 -32.24)" gradientUnits="userSpaceOnUse">
      <stop offset="0" stop-color="#fff"/>
      <stop offset=".51" stop-color="#fdfdfd"/>
      <stop offset=".7" stop-color="#f6f6f6"/>
      <stop offset=".83" stop-color="#ebebeb"/>
      <stop offset=".94" stop-color="#dadada"/>
      <stop offset="1" stop-color="#ccc"/>
    </radialGradient>
  </defs>
  <path d="M186.9,30.95c10.83,0,15.67,4.46,15.67,10.46,0,4.34-2.93,8.03-7.77,9.44,2.16,1.79,3.95,3.44,6.62,6.12l4.58,4.59c3.44,3.44,7.01,5.61,11.46,5.87v1.02c-10.32.51-12.86-1.66-18.09-6.89l-3.82-3.83c-2.68-2.55-4.71-4.33-6.11-5.23-1.4.13-2.42.13-3.95.13-1.4,0-2.17-.13-3.06-.13v9.95c0,3.44,1.4,4.34,4.71,4.34h1.4v1.15h-16.56v-1.15h1.02c3.44,0,4.71-.89,4.71-4.85v-24.61c0-3.7-.89-4.72-4.33-4.72h-1.27v-1.15c1.4,0,4.97-.26,7.39-.38,2.42-.13,3.57-.13,7.39-.13ZM310.06,62.95c1.15,3.06,2.42,3.7,5.35,3.7v-.13h.26c3.57,0,4.84-1.27,4.84-3.95v-28.56c-1.4-.89-2.8-1.4-4.97-1.4v-1.15h9.17l27.51,28.69v-23.21c0-3.57-1.02-4.21-5.73-4.34v-1.15h13.63v1.15c-4.33,0-5.35.77-5.35,3.06v32.64h-1.53v-.13l-30.19-31.75v24.99c0,4.21.89,5.1,5.86,5.1v1.15h-13.5v.13h-16.05v-1.15h1.53c3.31,0,4.58-.38,4.58-2.04,0-1.02-.38-1.79-.64-2.42l-3.95-10.58h-12.23l-3.44,9.18c-.38,1.15-1.15,2.93-1.15,3.7,0,1.53,1.53,2.17,4.71,2.17h.89v1.15h-13.5v-1.15c3.82,0,4.46-.64,6.37-5.74l10.7-29.07-.51-1.28h5.09l12.23,32.39ZM166.52,62.95c1.15,3.06,2.42,3.7,5.35,3.7v1.15h-16.05v-1.15h1.53c3.31,0,4.59-.38,4.59-2.04,0-1.02-.38-1.79-.64-2.42l-3.95-10.58h-12.1l-3.44,9.18c-.38,1.15-1.15,2.93-1.15,3.7,0,1.53,1.53,2.17,4.71,2.17h.89v1.15h-28.4v-1.15c2.8,0,5.48-.77,5.22-3.83l-1.65-26.27h-.13l-14.65,31.24h-1.27l-14.9-31.24h-.13l-1.66,26.39c-.13,2.93,2.04,3.57,4.71,3.7v1.15h-12.23v-1.15c4.33,0,4.84-.89,5.09-6.25l1.4-22.83c.25-3.82.13-4.97-3.57-5.1v-1.02h8.92l14.14,29.45,14.01-29.45h8.53v1.02c-2.8.25-3.95.26-3.82,2.3l1.91,26.52c.38,5.31.76,5.35,4.98,5.35,3.81,0,4.45-.64,6.36-5.74l10.7-29.07-.51-1.28h5.1l12.1,32.39ZM222.94,32.48c-4.59,0-4.84,1.15-3.18,3.83l9.43,14.41,8.15-13.9c1.91-3.19.76-4.21-2.93-4.21v-1.15h30.06v1.15h-2.17c-3.82,0-4.84.38-4.84,4.08v26.91c0,1.53.64,2.17,2.29,2.17h8.53c3.44,0,4.46-1.4,8.15-6.5h1.02l-4.33,8.54h-26.11v-1.15h1.91c2.67,0,3.69-.89,3.69-3.83v-25.88c0-3.06-.89-4.34-4.58-4.34h-.51c-3.95.26-5.6,1.91-7.26,4.59l-9.68,16.32v8.8c0,3.06,1.15,4.33,4.71,4.33h.76v1.15h-16.05v-1.15h1.15c3.69,0,4.71-1.4,4.71-4.21v-8.29l-10.44-16.19c-2.8-4.46-4.2-5.35-8.02-5.48v-1.15h15.54v1.15ZM378.71,30.95c15.54,0,22.29,7.78,22.29,17.47,0,8.8-6.88,19.38-21.65,19.38h-18.72v-1.15h1.02c3.18,0,4.58-.77,4.58-4.21v-25.25c0-3.83-1.02-4.72-4.46-4.72h-1.15v-1.02c2.17-.13,5.1-.26,8.28-.38,3.18-.13,6.75-.13,9.81-.13ZM375.78,31.97c-2.42,0-3.95.26-4.71.26v31.11c0,2.42.25,3.19,4.84,3.19,7.9,0,11.21-1.15,14.78-4.72,2.16-2.17,4.84-6.63,4.84-12.62,0-4.21-1.27-9.05-4.71-12.5-2.68-2.68-6.88-4.72-15.03-4.72ZM185.37,31.97c-1.15,0-1.91,0-2.93.13h-.13v19.25c1.4.13,2.29.13,3.69.13,6.5,0,10.83-2.81,10.83-9.82,0-5.48-2.42-9.69-11.46-9.69ZM146.27,49.05h10.06l-5.09-13.52-4.97,13.52ZM289.81,49.05h10.06l-5.09-13.52-4.97,13.52ZM255.04,5.7c1.53,0,2.29.25,2.93.51.38.13.64.26,1.02.26q.13,0,.25-.13l.13-.13h1.02l.64,4.46h-1.15l-.13-.25c-.76-1.91-2.42-3.19-4.33-3.19-1.65,0-2.8.89-2.8,2.29,0,1.66,1.91,2.93,3.95,4.21,2.55,1.53,5.35,3.32,5.09,6.38,0,3.06-2.68,5.36-6.24,5.36-1.02,0-2.29-.38-3.18-.64-.26-.13-.64-.25-.76-.25-.13,0-.26,0-.26.13l-.13.26h-1.02l-.76-5.23h1.27l.13.25c.51,2.3,2.29,3.83,4.46,3.83,1.78,0,3.57-1.02,3.57-3.06,0-1.79-1.91-2.93-4.08-4.34-2.42-1.53-5.09-3.32-5.09-6.12s2.29-4.59,5.48-4.59ZM172.63,7.36h-.38c-1.53.13-2.29.26-2.55.64,0,.13-.13.26.13.89l4.84,12.11,4.2-10.97c.38-.76.51-1.27.51-1.66s0-.89-2.29-.89h-.38v-1.4h7.52v1.27h-.38c-1.4,0-2.04.64-2.68,2.3l-6.11,15.68h-1.91l-6.37-15.94c-.76-1.78-1.02-2.04-2.55-2.04h-.38v-1.27h8.79v1.27ZM228.04,5.95c5.1,0,8.15,2.04,8.15,5.48,0,2.17-1.27,3.95-3.44,4.85.89.64,1.66,1.53,2.8,2.55l2.29,2.3c1.78,1.91,3.44,2.68,5.48,2.93h.38v1.28h-1.65c-4.2,0-5.6-1.15-8.02-3.57l-1.91-1.91c-1.02-1.02-2.04-1.91-2.8-2.42h-3.06v4.46c0,1.4.38,1.79,1.91,1.79h1.02v1.28h-8.91v-1.28h.89c1.4,0,1.91-.25,1.91-2.04v-12.24c0-1.53-.26-1.91-1.78-1.91h-1.02v-1.27h.38c.64,0,1.78,0,2.93-.13h.76c1.27-.13,1.78-.13,3.69-.13ZM366.86,5.7c5.99,0,10.57,4.08,10.57,9.31,0,5.87-4.59,10.33-10.7,10.33-6.11,0-10.83-4.08-10.83-9.44,0-5.87,4.59-10.2,10.95-10.2ZM91.12,7.36h-.64c-1.53,0-1.91.38-1.91,1.79v8.03c0,3.83,2.29,5.87,6.24,5.87,2.8,0,6.24-1.02,6.24-5.87v-6.76c0-2.68-.38-2.93-2.42-3.06h-.38v-1.15h7.64v1.28h-.38c-1.78,0-2.29.64-2.29,2.29v7.65c0,3.57-2.29,7.78-8.92,7.78-5.35,0-8.79-2.93-8.79-7.65v-8.42c0-1.53-.25-1.79-2.17-1.79h-.38v-1.27h8.15v1.27ZM132.77,19.85v-10.58c0-1.4-.13-1.79-2.42-1.79h-.51v-1.4h7.51v1.27h-.38c-2.29,0-2.29.38-2.29,1.15v16.58h-1.27l-.13-.13-14.26-15.05v11.48c0,1.79.25,2.17,2.55,2.17h.38v1.28h-7.51v-1.28h.51c1.78,0,2.04-.51,2.04-1.53V7.87c-.51-.26-1.15-.51-2.04-.51h-.38v-1.27h5.1l13.12,13.77ZM293.76,5.95c.13.13.38.13.51.13h14.01c.38,0,.5-.12.51-.13v-.25h1.27l.76,5.48h-1.27v-.25c-.51-2.68-1.02-2.93-1.78-2.93h-4.71v14.03c0,1.28.26,1.79,1.91,1.79h1.4v1.28h-9.93v-1.28h1.4c1.66,0,1.91-.51,1.91-1.79V7.99h-4.71c-.76,0-1.27.26-1.78,2.93v.25h-1.27l.51-5.48h1.27v.25ZM327.89,7.61h-.38c-1.4,0-1.65.13-1.65.25-.13.13-.13.26.38,1.02l4.33,6.63,3.82-6.5c.51-.76.38-1.02.38-1.15-.13-.13-.38-.38-1.53-.38v-1.15h7.26v1.28h-.38c-1.78.13-2.55.89-3.31,2.17l-4.84,8.03v4.21c0,1.28.25,1.79,1.91,1.79h.76v1.27h-8.79v-1.27h.89c1.66,0,1.91-.51,1.91-1.66v-3.95l-5.1-8.03c-1.4-2.29-2.04-2.55-3.69-2.55h-.38v-1.28h8.41v1.28ZM208.55,10.93h-1.27v-.38c-.38-2.42-1.02-2.68-1.78-2.68h-5.73v6.38h4.84c.64,0,1.15-.13,1.27-1.79v-.38h1.27v6.38h-1.27v-.38c-.25-1.91-.76-1.91-1.66-1.91h-4.58v5.74c0,1.15.26,1.27,1.15,1.27h4.46c1.65,0,2.16-.51,2.93-3.06l.38-.38h1.27l-.51,5.1h-16.17v-1.28h1.14c2.04,0,2.29-.51,2.29-2.04v-12.24c0-1.4-.25-1.91-1.91-1.91h-1.02v-1.27h14.65l.26,4.84ZM154.29,7.48h-.38c-1.65,0-2.04.13-2.04,1.91v12.24c0,1.53.26,1.91,2.04,1.91h.38v1.28h-7.77v-1.28h.38c1.53-.13,1.78-.38,1.78-2.17v-12.37c0-1.27-.26-1.53-1.78-1.66h-.38v-1.15h7.77v1.27ZM281.02,7.48h-.38c-1.66,0-2.04.13-2.04,1.91v12.24c0,1.53.25,1.91,2.04,1.91h.38v1.28h-7.77v-1.28h.38c1.53-.13,1.78-.38,1.78-2.17v-12.37c0-1.27-.26-1.53-1.78-1.66h-.38v-1.15h7.77v1.27ZM397.56,10.29h-1.27v-.38c0-1.53-.51-2.04-2.04-2.04h-5.22v6.12h5.35c.64,0,1.15-.26,1.27-1.53v-.38h1.27v5.87h-1.27v-.38c0-1.53-.51-1.79-1.66-1.79h-4.97v5.74c0,1.4.13,1.91,2.16,1.91h.38v1.28h-7.77v-1.28h.38c1.53,0,1.78-.13,1.78-2.42v-11.35c0-1.78-.13-2.3-1.78-2.3h-.38v-1.27h13.76v4.21ZM366.1,7.1c-4.97,0-6.75,4.72-6.75,7.78,0,5.1,3.44,8.93,8.02,8.93,4.58,0,6.62-4.08,6.62-7.91,0-5.23-3.31-8.8-7.9-8.8ZM226.25,16.15h1.4c3.31,0,4.97-1.4,4.97-4.46s-1.66-4.46-5.35-4.46h-1.02v8.93Z"/>
  <path class="st0" d="M36.22,69.07c-17.83,0-32.22-14.41-32.22-32.26S18.39,4.55,36.22,4.55s32.22,14.41,32.22,32.26-14.52,32.26-32.22,32.26Z"/>
  <path class="st2" d="M36.22,69.07c-17.83,0-32.22-14.41-32.22-32.26S18.39,4.55,36.22,4.55s32.22,14.41,32.22,32.26-14.52,32.26-32.22,32.26ZM36.22,5.06c-17.58,0-31.84,14.28-31.84,31.88s14.27,31.88,31.84,31.88,31.84-14.28,31.84-31.88c-.13-17.6-14.39-31.88-31.84-31.88Z"/>
  <path class="st5" d="M68.19,36.17c0,.13-.51.64-1.15,1.02-.76.51-2.04.89-3.44,1.28-1.53.38-3.31.77-5.35,1.02-2.04.26-4.33.51-6.75.77-3.06.26-5.09.38-7.51.51-2.67.13-5.35.13-8.15.13v8.16q.13,12.24.51,19.76c17.7,0,31.97-14.28,31.97-32.01-.13,0-.13-.38-.13-.64Z"/>
  <path d="M35.71,42.04v7.14q5.09,4.85,7.26,7.01c.51-4.08.89-8.93.89-14.28v-1.02c-3.18.13-5.35.13-8.15.13v1.02Z"/>
  <path d="M47.43,61.55c-1.15-1.79-2.17-3.06-4.46-5.48-1.15,7.78-3.06,12.62-5.48,12.75h.76c.25,0,.51,0,.76-.13,3.44-.26,6.24-2.81,8.41-7.14Z"/>
  <path d="M51,48.54s-1.78,9.56-3.57,13.13c1.02,1.91,1.02,2.68.64,3.95,3.06-2.42,5.6-5.87,7.39-10.33-1.02-2.42-1.78-3.57-4.46-6.76Z"/>
  <path d="M41.96,68.43c.64-.13.64-.25,1.91-.51l.76-.25c2.42-.77,2.8-1.15,3.57-2.17-2.17,1.53-4.33,2.55-6.88,2.93h.64Z"/>
  <path d="M56.09,60.53c4.59-5.23,7.39-12.62,7.39-21.04v-1.02c-1.53.38-3.31.76-5.35,1.02v1.02c0,5.48-.89,10.46-2.67,14.66,1.15,2.42,1.15,3.57.64,5.36Z"/>
  <path d="M51.51,40.25c-3.06.26-5.09.38-7.51.51,4.33,4.59,5.35,5.61,7.13,7.78.25-2.3.38-4.72.38-7.14v-1.15Z"/>
  <path d="M29.22,6.46c1.78-.77,3.44-1.53,7.01-1.66-2.42.26-4.84.89-7.01,1.66Z"/>
  <path class="st4" d="M57.62,39.49c-1.66-.26-3.06-3.06-2.29-5.87-2.29,1.66-4.97-1.66-4.59-4.85.25-1.66,1.27-3.06,3.18-2.42-.76-2.55-1.66-5.1-2.8-7.4-1.66.26-3.44.38-5.35.51,1.66,2.55,0,4.97-2.29,4.59-1.78-.25-3.31-2.04-2.93-4.21-1.4,1.02-4.33.64-4.59-2.42-.13,6.5-.13,14.79-.13,23.46,8.53.13,18.47-.77,22.42-1.4h-.64Z"/>
  <path class="st4" d="M15.59,45.86c2.42-.89,5.35,3.19,4.33,5.99-.51,1.28-1.78,1.66-3.06.89.76,2.42,1.66,4.59,2.67,6.5,1.66.26,3.57.38,5.6.64-1.66-2.04-.38-3.7,1.91-3.57,1.91.13,4.46,1.66,3.82,3.83,1.66-.77,4.59-.13,4.97,2.04-.13-4.85-.13-11.86-.13-20.15v-1.02c-2.67,0-5.48-.13-8.15-.26-5.73-.26-9.68-.51-14.52-1.4,2.42.77,3.18,4.46,2.55,6.5Z"/>
  <path class="st4" d="M51.38,16.41c.38,0,.64-.13.89-.13,1.78-.38,5.99-1.28,5.99-2.55,0,0,1.66,1.66,2.8,3.95.13.26.25.51.38.89.13.38.25.89.25,1.15,0,.64-.51.77-.89.51h-.13c-1.66-.77-2.17-2.3-2.55-2.93-.89.26-2.17.89-3.31,1.15-.13,0-.38.13-.51.13,1.4,2.3,2.67,4.85,3.57,7.52,1.66-1.66,4.08,1.4,4.2,4.34.13,1.79-.76,3.32-2.29,2.68,1.27,2.42.89,5.87-1.53,6.63-.51-8.03-1.78-14.92-6.88-23.33Z"/>
  <path class="st4" d="M51.38,16.41c-4.08-6.25-7.26-8.54-11.46-10.07-.76-.38-3.57-1.4-3.82-1.4.76,1.02,2.17,1.66,2.55,1.79-.13.38,0,1.15,1.27,2.17.25.13.38.26.64.38,2.04,1.15,2.55.26,2.67-.13.64.38,1.91,1.28,3.31,2.93.76.89,1.53,1.79,2.04,2.55-1.27.13-2.93.26-4.71.38-.13-2.04-1.53-3.06-2.55-3.44-2.04-.76-2.67,1.66-1.78,3.32-1.66-.89-3.44-.13-3.82,2.42,6.5,0,10.83-.25,15.67-.89Z"/>
  <path class="st4" d="M51.76,10.54v-.26c0-.13.13-.13.13-.13,0,0,0-.13.13-.13.38-.13,1.27-.26,3.95,1.53-5.6-4.34-11.46-6.12-16.56-6.63-.76-.13-2.04-.13-2.04-.13,1.66.13,2.67.51,2.93.64.25.13.38.13.51.26.38,0,.64.13,1.15.26.51.13,1.27.51,2.04.77.76.38,1.78,1.15,1.78,1.53-.13.13-.25.13-.76,0,1.91,1.4,4.59,3.95,6.24,5.74,1.15-.26,2.8-.38,3.57-.64-.13.13-2.55-1.66-3.06-2.81Z"/>
  <path class="st4" d="M19.16,61.04c-2.8-.51-4.33-.89-5.35-1.4-.13-.13-.25-.13-.25-.13,0,0-1.53-1.53-2.93-3.32-1.02-1.28-1.78-2.68-1.91-2.81h.38c1.4.51,3.69,4.46,3.69,4.46.89.38,2.04.64,3.44.89-1.27-2.04-2.42-4.21-3.31-6.63-2.04,1.02-4.59-4.21-3.69-6.5.25-.51.76-1.4,2.04-.38-1.02-2.3-.76-5.87,1.66-5.87.13,7.78,1.27,14.41,6.24,21.68Z"/>
  <path class="st4" d="M35.84,62.57c-.25,1.15-1.78,2.17-4.08,1.28,1.02,1.4.13,2.55-1.66,2.17-1.4-.25-3.06-1.4-3.18-2.55-1.78-.13-3.31-.25-4.71-.51,1.4,1.53,2.8,2.81,4.46,3.83.25-.13.51,0,1.4.25,1.27.38,2.42,1.02,3.57,1.4h-.25c-.89-.13-1.15-.26-1.66-.26-2.42-.51-6.5-1.79-10.57-7.27,4.97.77,9.81,1.15,16.68,1.15v.51Z"/>
  <path class="st5" d="M36.1,4.81c-17.19,0-31.59,14.03-31.97,31.37,0,0,.13.38.89.77.64.38,1.66.89,2.93,1.28,1.66.38,3.31.76,4.97,1.02,4.84.76,8.79,1.15,14.52,1.4,2.67.13,5.48.26,8.15.26v-23.46c.38-5.87.38-11.86.51-12.62Z"/>
  <path d="M51.51,64.99c-1.78,1.02-2.17,1.02-4.59,2.04-.64.26-1.27.38-2.04.64,4.33-1.15,10.19-5.99,11.21-7.14-.51,1.15-.89,1.91-2.17,2.93-.38.25-1.91,1.28-2.42,1.53Z"/>
  <path d="M8.08,38.21c-1.27-.38-2.29-.77-2.93-1.28.25-11.48,6.75-21.8,16.05-27.42-2.17,1.91-3.18,3.19-4.33,5.87-5.22,5.99-8.53,14.15-8.79,22.82Z"/>
  <path d="M21.32,9.52c2.29-1.66,3.69-2.93,7.39-3.83,2.55-.64,4.84-.89,7.51-.89-5.48.26-10.57,2.04-14.9,4.72Z"/>
  <path d="M19.54,40.13c-2.29-.26-4.59-.51-6.5-.89.13-5.87,1.4-11.35,3.44-16.32.76,3.19,1.53,4.97,3.82,8.8-.51,2.81-.76,5.61-.76,8.42Z"/>
  <path d="M35.84,17.43c0,3.57,0,7.14-.13,9.95v5.23c-3.18-3.32-4.84-5.1-7.13-8.03,1.53-9.95,4.33-17.85,7.51-19.64-.13.77-.13,6.5-.25,12.5Z"/>
  <path d="M24.63,17.05c-2.04,4.21-3.57,9.31-4.33,14.79,1.91,2.93,3.18,4.59,7.01,8.93,0-5.74.51-11.22,1.27-16.32-2.29-3.19-3.06-4.72-3.95-7.4Z"/>
  <path d="M66.92,37.19v1.02c0,11.35-5.48,20.78-14.14,26.01l-.13.13c4.08-2.55,9.17-6.76,12.48-13.64,3.44-6.89,3.06-14.54,3.06-14.54-.13.26-.64.64-1.27,1.02Z"/>
  <path d="M29.22,6.46c-4.71,1.79-8.92,4.97-12.23,8.93-.89,2.93-.89,4.59-.51,7.65,2.04-4.85,4.97-9.05,8.41-12.24,1.02-1.79,1.66-2.93,4.33-4.34Z"/>
  <path d="M24.63,17.05c-.64-2.68-.64-3.95.25-6.25,3.31-3.06,7.13-5.36,11.34-5.99-4.59,1.15-8.66,5.87-11.59,12.24Z"/>
  <path class="st1" d="M651.21,64.18c0,4.64-3.76,6.2-7.88,6.2-2.84,0-5.92-1.12-8.04-2.68l1.88-3.12c1.96,1.36,4.16,2.08,6.12,2.08,2.6,0,3.84-.84,3.84-2.32,0-1.6-1.84-2.36-4.88-3.52-4.52-1.76-6.16-3.28-6.16-6.6,0-3.76,2.96-5.72,7.16-5.72,2.64,0,5.24.96,7.12,2.32l-1.8,3.16c-1.72-1.2-3.44-1.8-5.44-1.8s-2.88.8-2.88,1.92c0,1.04.72,1.8,3.88,3.04,4.68,1.8,7.08,3.08,7.08,7.04Z"/>
  <path class="st1" d="M630.59,69.94h-4.12v-11.88c0-4.24-1.6-5.76-4.32-5.76s-4.32,1.96-4.32,5.36v12.28h-4.12v-21h4.12v2c1.04-1.52,3.12-2.44,5.28-2.44,4.88,0,7.48,3.2,7.48,9.4v12.04Z"/>
  <path class="st1" d="M608.62,59.34c0,6.96-4.08,11.04-9.48,11.04s-9.24-4.36-9.24-10.92,4.08-10.96,9.36-10.96,9.36,4.28,9.36,10.84ZM604.46,59.46c0-4.28-2.04-7.04-5.36-7.04-3.12,0-5.04,2.76-5.04,6.92,0,4.6,2.12,7.12,5.24,7.12s5.16-3.16,5.16-7Z"/>
  <path class="st1" d="M585.23,43.58c0,1.44-1.2,2.64-2.64,2.64s-2.68-1.2-2.68-2.64,1.2-2.68,2.68-2.68,2.64,1.2,2.64,2.68ZM584.63,69.94h-4.12v-21h4.12v21Z"/>
  <path class="st1" d="M575.03,64.18c0,4.64-3.76,6.2-7.88,6.2-2.84,0-5.92-1.12-8.04-2.68l1.88-3.12c1.96,1.36,4.16,2.08,6.12,2.08,2.6,0,3.84-.84,3.84-2.32,0-1.6-1.84-2.36-4.88-3.52-4.52-1.76-6.16-3.28-6.16-6.6,0-3.76,2.96-5.72,7.16-5.72,2.64,0,5.24.96,7.12,2.32l-1.8,3.16c-1.72-1.2-3.44-1.8-5.44-1.8s-2.88.8-2.88,1.92c0,1.04.72,1.8,3.88,3.04,4.68,1.8,7.08,3.08,7.08,7.04Z"/>
  <path class="st1" d="M555.46,64.18c0,4.64-3.76,6.2-7.88,6.2-2.84,0-5.92-1.12-8.04-2.68l1.88-3.12c1.96,1.36,4.16,2.08,6.12,2.08,2.6,0,3.84-.84,3.84-2.32,0-1.6-1.84-2.36-4.88-3.52-4.52-1.76-6.16-3.28-6.16-6.6,0-3.76,2.96-5.72,7.16-5.72,2.64,0,5.24.96,7.12,2.32l-1.8,3.16c-1.72-1.2-3.44-1.8-5.44-1.8s-2.88.8-2.88,1.92c0,1.04.72,1.8,3.88,3.04,4.68,1.8,7.08,3.08,7.08,7.04Z"/>
  <path class="st1" d="M535.12,43.58c0,1.44-1.2,2.64-2.64,2.64s-2.68-1.2-2.68-2.64,1.2-2.68,2.68-2.68,2.64,1.2,2.64,2.68ZM534.52,69.94h-4.12v-21h4.12v21Z"/>
  <path class="st1" d="M524.26,69.94h-4.12v-11.88c0-4.24-1.32-5.76-4.04-5.76s-4.04,1.96-4.04,5.36v12.28h-4.12v-11.88c0-4.24-1.32-5.76-4.04-5.76s-4.04,1.96-4.04,5.36v12.28h-4.12v-21h4.12v2c1.04-1.52,2.84-2.44,5-2.44,2.84,0,4.64,1.08,5.76,3.08,1.52-1.88,3.16-3.08,6.44-3.08,4.88,0,7.2,3.2,7.2,9.4v12.04Z"/>
  <path class="st1" d="M489.65,69.94h-4.08v-2c-1.52,1.4-3.28,2.44-5.48,2.44-4.52,0-8.08-3.28-8.08-11.28,0-7.2,3.92-10.6,8.28-10.6,2.12,0,4.12,1.12,5.28,2.4v-8l4.08-2.12v29.16ZM485.61,63.9v-8.84c-.92-1.24-2.84-2.76-4.92-2.76-2.96,0-4.56,2.24-4.56,6.68,0,5.28,1.68,7.6,4.72,7.6,1.96,0,3.68-1.32,4.76-2.68Z"/>
  <path class="st1" d="M468.6,69.94h-4.48l-2.36-6.64h-11.2l-2.32,6.64h-4.36l10.08-28h4.44l10.2,28ZM460.48,59.54l-2.24-6.44c-.68-2-1.8-5.24-2.12-6.44-.32,1.2-1.32,4.4-2.04,6.48l-2.24,6.4h8.64Z"/>
  <path class="st1" d="M716.69,23.02c0,.76-.08,1.44-.12,1.88h-13.88c.44,4.04,2.72,5.76,5.28,5.76,1.76,0,3.16-.64,4.56-1.68l2.44,2.64c-1.84,1.76-4.04,2.76-7.24,2.76-4.92,0-9.08-3.96-9.08-10.92s3.76-10.96,9.2-10.96c5.96,0,8.84,4.84,8.84,10.52ZM712.53,21.5c-.2-2.88-1.56-5.28-4.96-5.28-2.76,0-4.44,1.92-4.8,5.28h9.76Z"/>
  <path class="st1" d="M694.82,29.78l-.48,3.64c-1,.56-2.4.96-4.04.96-2.92,0-4.72-1.8-4.72-5.56v-12.12h-3v-3.76h3v-6l4.04-2.16v8.16h5.2v3.76h-5.2v11.4c0,1.96.64,2.52,2.16,2.52,1.08,0,2.28-.4,3.04-.84Z"/>
  <path class="st1" d="M678.39,33.94h-4.04v-2.08c-1.44,1.44-3.48,2.52-5.76,2.52-3.4,0-7.28-1.92-7.28-7.08,0-4.68,3.6-6.8,8.36-6.8,1.96,0,3.52.28,4.68.8v-1.56c0-2.28-1.4-3.56-3.96-3.56-2.16,0-3.84.4-5.48,1.32l-1.6-3.12c2-1.24,4.24-1.88,7.2-1.88,4.68,0,7.88,2.28,7.88,7.04v14.4ZM674.35,27.98v-3c-1.12-.56-2.56-.92-4.8-.92-2.64,0-4.32,1.2-4.32,3.12,0,2.08,1.32,3.48,4.04,3.48,2.2,0,4.12-1.36,5.08-2.68Z"/>
  <path class="st1" d="M656.21,33.94h-4.12v-2c-1.04,1.52-3.12,2.44-5.28,2.44-4.88,0-7.48-3.2-7.48-9.4v-12.04h4.12v11.88c0,4.24,1.6,5.76,4.32,5.76s4.32-1.96,4.32-5.36v-12.28h4.12v21Z"/>
  <path class="st1" d="M633.4,33.94h-4.08v-2c-1.52,1.4-3.28,2.44-5.48,2.44-4.52,0-8.08-3.28-8.08-11.28,0-7.2,3.92-10.6,8.28-10.6,2.12,0,4.12,1.12,5.28,2.4v-8l4.08-2.12v29.16ZM629.36,27.9v-8.84c-.92-1.24-2.84-2.76-4.92-2.76-2.96,0-4.56,2.24-4.56,6.68,0,5.28,1.68,7.6,4.72,7.6,1.96,0,3.68-1.32,4.76-2.68Z"/>
  <path class="st1" d="M610.77,33.94h-4.04v-2.08c-1.44,1.44-3.48,2.52-5.76,2.52-3.4,0-7.28-1.92-7.28-7.08,0-4.68,3.6-6.8,8.36-6.8,1.96,0,3.52.28,4.68.8v-1.56c0-2.28-1.4-3.56-3.96-3.56-2.16,0-3.84.4-5.48,1.32l-1.6-3.12c2-1.24,4.24-1.88,7.2-1.88,4.68,0,7.88,2.28,7.88,7.04v14.4ZM606.73,27.98v-3c-1.12-.56-2.56-.92-4.8-.92-2.64,0-4.32,1.2-4.32,3.12,0,2.08,1.32,3.48,4.04,3.48,2.2,0,4.12-1.36,5.08-2.68Z"/>
  <path class="st1" d="M591.86,13.38l-1.08,3.92c-.88-.48-1.8-.76-3.16-.76-2.6,0-4.12,1.84-4.12,5.4v12h-4.12V12.94h4.12v2c.96-1.4,2.72-2.44,4.8-2.44,1.68,0,2.72.32,3.56.88Z"/>
  <path class="st1" d="M573.28,31.94c0,6.4-2.32,9.48-9.92,9.72l-1.4-3.12c5.92-.28,7.2-1.88,7.2-6.24v-.36c-1.52,1.4-3.24,2.44-5.44,2.44-4.48,0-8.08-3.28-8.08-11.28,0-7.2,3.96-10.6,8.28-10.6,2.12,0,4.12,1.12,5.24,2.4v-1.96h4.12v19ZM569.24,27.9v-8.84c-.92-1.24-2.84-2.76-4.92-2.76-2.96,0-4.56,2.24-4.56,6.68,0,5.28,1.68,7.6,4.72,7.6,1.96,0,3.68-1.32,4.76-2.68Z"/>
  <path class="st1" d="M553.46,13.38l-1.08,3.92c-.88-.48-1.8-.76-3.16-.76-2.6,0-4.12,1.84-4.12,5.4v12h-4.12V12.94h4.12v2c.96-1.4,2.72-2.44,4.8-2.44,1.68,0,2.72.32,3.56.88Z"/>
  <path class="st1" d="M535.87,23.02c0,.76-.08,1.44-.12,1.88h-13.88c.44,4.04,2.72,5.76,5.28,5.76,1.76,0,3.16-.64,4.56-1.68l2.44,2.64c-1.84,1.76-4.04,2.76-7.24,2.76-4.92,0-9.08-3.96-9.08-10.92s3.76-10.96,9.2-10.96c5.96,0,8.84,4.84,8.84,10.52ZM531.71,21.5c-.2-2.88-1.56-5.28-4.96-5.28-2.76,0-4.44,1.92-4.8,5.28h9.76Z"/>
  <path class="st1" d="M512.74,33.94h-4.08v-2c-1.52,1.4-3.28,2.44-5.48,2.44-4.52,0-8.08-3.28-8.08-11.28,0-7.2,3.92-10.6,8.28-10.6,2.12,0,4.12,1.12,5.28,2.4v-8l4.08-2.12v29.16ZM508.7,27.9v-8.84c-.92-1.24-2.84-2.76-4.92-2.76-2.96,0-4.56,2.24-4.56,6.68,0,5.28,1.68,7.6,4.72,7.6,1.96,0,3.68-1.32,4.76-2.68Z"/>
  <path class="st1" d="M490.08,33.94h-4.12v-11.88c0-4.24-1.6-5.76-4.32-5.76s-4.32,1.96-4.32,5.36v12.28h-4.12V12.94h4.12v2c1.04-1.52,3.12-2.44,5.28-2.44,4.88,0,7.48,3.2,7.48,9.4v12.04Z"/>
  <path class="st1" d="M466.72,22.26c0,7.84-3.8,12.12-10.76,12.12s-10.52-4.48-10.52-12.2V5.94h4.2v16.12c0,5.28,2.2,8.12,6.4,8.12s6.48-2.72,6.48-7.84V5.94h4.2v16.32Z"/>
  <line class="st3" x1="422.5" y1="0" x2="422.5" y2="69.94"/>
</svg>