<?xml version="1.0" encoding="UTF-8"?>
<svg id="Layer_1" data-name="Layer 1" xmlns="http://www.w3.org/2000/svg" xmlns:xlink="http://www.w3.org/1999/xlink" viewBox="0 0 314 50" width="314" height="50">
  <defs>
    <style>
      .cls-1 {
        fill: url(#radial-gradient);
      }

      .cls-2 {
        fill: #ccc;
      }

      .cls-3 {
        fill: #fff;
      }

      .cls-4 {
        fill: #e03a3e;
      }

      .cls-5 {
        fill: #ffd520;
      }
    </style>
    <radialGradient id="radial-gradient" cx="26.5" cy="26.6" fx="26.5" fy="26.6" r="25.3" gradientTransform="translate(0 52) scale(1 -1)" gradientUnits="userSpaceOnUse">
      <stop offset="0" stop-color="#fff"/>
      <stop offset=".51" stop-color="#fdfdfd"/>
      <stop offset=".7" stop-color="#f6f6f6"/>
      <stop offset=".83" stop-color="#ebebeb"/>
      <stop offset=".94" stop-color="#dadada"/>
      <stop offset="1" stop-color="#ccc"/>
    </radialGradient>
  </defs>
  <g>
    <path class="cls-3" d="M81.1,49.2l-11.7-24.5h-.1l-1.3,20.6c-.1,2.3,1.6,2.8,3.7,2.9v.9h-9.6v-.9c3.4,0,3.8-.7,4-4.9l1.1-17.9c.2-3,.1-3.9-2.8-4v-.8h7l11.1,23.1,11-23.1h6.7v.8c-2.2.2-3.1.2-3,1.8l1.5,20.8c.3,4.2.6,4.2,4,4.2v.9h-11.8v-.9c2.2,0,4.3-.6,4.1-3l-1.3-20.6h-.1l-11.5,24.6h-1Z"/>
    <path class="cls-3" d="M121.1,34.5h-7.9l3.9-10.6,4,10.6ZM121.9,36.5l3.1,8.3c.2.5.5,1.1.5,1.9,0,1.3-1,1.6-3.6,1.6h-1.2v.9h12.6v-.9c-2.3,0-3.3-.5-4.2-2.9l-9.5-25.4h-4l.4,1-8.4,22.8c-1.5,4-2,4.5-5,4.5v.9h10.6v-.9h-.7c-2.5,0-3.7-.5-3.7-1.7,0-.6.6-2,.9-2.9l2.7-7.2s9.5,0,9.5,0Z"/>
    <path class="cls-3" d="M141.6,21.2c.8-.1,1.4-.1,2.3-.1,7.1,0,9,3.3,9,7.6,0,5.5-3.4,7.7-8.5,7.7-1.1,0-1.8,0-2.9-.1v-15.1h.1ZM141.6,37.1c.7,0,1.3.1,2.4.1,1.2,0,2,0,3.1-.1,1.1.7,2.7,2.1,4.8,4.1l3,3c4.1,4.1,6.1,5.8,14.2,5.4v-.8c-3.5-.2-6.3-1.9-9-4.6l-3.6-3.6c-2.1-2.1-3.5-3.4-5.2-4.8,3.8-1.1,6.1-4,6.1-7.4,0-4.7-3.8-8.2-12.3-8.2-3,0-3.9,0-5.8.1-1.9.1-4.7.3-5.8.3v.9h1c2.7,0,3.4.8,3.4,3.7v19.3c0,3.1-1,3.8-3.7,3.8h-.8v.9h13v-.9h-1.1c-2.6,0-3.7-.7-3.7-3.4v-7.8h0Z"/>
    <path class="cls-3" d="M184.7,24.8c1.5-2.5.6-3.3-2.3-3.3v-.9h10.3v.9c-3.1.2-4.4,1.5-5.7,3.6l-7.6,12.9v6.9c0,2.4.9,3.4,3.7,3.4h.6v.9h-12.7v-.9h.9c2.9,0,3.7-1.1,3.7-3.3v-6.5l-8.2-12.7c-2.2-3.5-3.3-4.2-6.3-4.3v-.9h12.2v.9c-3.6,0-3.8.9-2.5,3l7.4,11.3,6.5-11Z"/>
    <path class="cls-3" d="M212.8,49.2h-20.5v-.9h1.5c2.1,0,2.9-.7,2.9-3v-20.3c0-2.4-.7-3.4-3.6-3.4h-.6v-.9h13.5v.9h-1.7c-3,0-3.8.3-3.8,3.2v21.1c0,1.2.5,1.7,1.8,1.7h6.7c2.7,0,3.5-1.1,6.4-5.1h.8l-3.4,6.7Z"/>
    <path class="cls-3" d="M233.8,34.5h-7.9l3.9-10.6,4,10.6ZM234.6,36.5l3.1,8.3c.2.5.5,1.1.5,1.9,0,1.3-1,1.6-3.6,1.6h-1.2v.9h12.6v-.9c-2.3,0-3.3-.5-4.2-2.9l-9.6-25.4h-4l.4,1-8.4,22.8c-1.5,4-2,4.5-5,4.5v.9h10.6v-.9h-.7c-2.5,0-3.7-.5-3.7-1.7,0-.6.6-2,.9-2.9l2.7-7.2s9.6,0,9.6,0Z"/>
    <path class="cls-3" d="M275.7,49.5l-23.7-24.9v19.6c0,3.3.7,4,4.6,4v.9h-10.6v-.9h.2c2.8,0,3.8-1,3.8-3.1v-22.4c-1.1-.7-2.2-1.1-3.9-1.1v-.9h7.2l21.6,22.5v-18.3c0-2.8-.8-3.3-4.5-3.4v-.9h10.7v.9c-3.4,0-4.2.6-4.2,2.4v25.6h-1.2Z"/>
    <path class="cls-3" d="M289.7,21.3c.6,0,1.8-.2,3.7-.2,6.4,0,9.7,1.6,11.8,3.7,2.7,2.7,3.7,6.5,3.7,9.8,0,4.7-2.1,8.2-3.8,9.9-2.8,2.8-5.4,3.7-11.6,3.7-3.6,0-3.8-.6-3.8-2.5v-24.4h0ZM285.9,44.9c0,2.7-1.1,3.3-3.6,3.3h-.8v.9h14.7c11.6,0,17-8.3,17-15.2,0-7.6-5.3-13.7-17.5-13.7-2.4,0-5.2,0-7.7.1s-4.8.2-6.5.3v.8h.9c2.7,0,3.5.7,3.5,3.7v19.8Z"/>
  </g>
  <g>
    <path class="cls-3" d="M75.5,2.3h.3c1.6.1,1.9.3,1.9,2.4v5.3c0,3.8-2.7,4.6-4.9,4.6-3.1,0-4.9-1.6-4.9-4.6V3.7c0-1.1.3-1.4,1.5-1.4h.5v-1h-6.5v1h.3c1.5,0,1.7.2,1.7,1.4v6.6c0,3.7,2.7,6,6.9,6,5.2,0,7-3.3,7-6.1v-6.1c0-1.3.4-1.8,1.8-1.8h.3v-1h-5.9s0,1,0,1Z"/>
    <path class="cls-3" d="M100.4,2.3h.3c1.8,0,1.9.3,1.9,1.4v8.3l-10.3-10.7h-4v1h.3c.7,0,1.2.2,1.6.4v11.1c0,.8-.2,1.2-1.6,1.2h-.4v1h5.9v-1h-.3c-1.8,0-2-.3-2-1.7V4.3l11.2,11.8.1.1h1V3.2c0-.6,0-.9,1.8-.9h.3v-1h-5.9v1h.1Z"/>
    <path class="cls-3" d="M113.4,2.3h.3c1.2.1,1.4.3,1.4,1.3v9.7c0,1.4-.2,1.6-1.4,1.7h-.3v1h6.1v-1h-.3c-1.4,0-1.6-.3-1.6-1.5V3.9c0-1.4.3-1.5,1.6-1.5h.3v-1h-6.1v.9Z"/>
    <path class="cls-3" d="M137.1,2.3h.3c1.8,0,1.8.4,1.8.7s-.1.7-.4,1.3l-3.3,8.7-3.8-9.5c-.2-.5-.1-.6-.1-.7.2-.3.8-.4,2-.5h.3v-1h-6.9v1h.3c1.2,0,1.4.2,2,1.6l5,12.5h1.5l4.8-12.3c.5-1.3,1-1.8,2.1-1.8h.3v-1h-5.9v1h0Z"/>
    <path class="cls-3" d="M161.8,12.3c-.6,2-1,2.4-2.3,2.4h-3.5c-.7,0-.9-.1-.9-1v-4.6h3.6c.7,0,1.1,0,1.3,1.5v.3h1v-4.9h-1v.3c-.1,1.3-.5,1.4-1,1.4h-4V2.7h4.5c.6,0,1.1.2,1.4,2.1v.3h1l-.2-3.8h-11.5v1h.8c1.3,0,1.5.4,1.5,1.5v9.6c0,1.2-.2,1.6-1.8,1.6h-.9v1h12.7l.4-4h-1l-.1.3Z"/>
    <path class="cls-3" d="M185.1,13.1l-1.8-1.8c-.8-.8-1.5-1.5-2.2-2,1.7-.7,2.7-2.1,2.7-3.8,0-2.7-2.4-4.3-6.4-4.3-1.5,0-1.9,0-2.9.1h-.6c-.8.1-1.8.1-2.2.1h-.3v1h.8c1.2,0,1.4.3,1.4,1.5v9.6c0,1.4-.4,1.6-1.5,1.6h-.7v1h7v-1h-.8c-1.2,0-1.5-.3-1.5-1.4v-3.5h2.3c.6.4,1.4,1.1,2.2,1.9l1.5,1.5c1.9,1.9,3,2.8,6.3,2.8h1.3v-1h-.3c-1.6-.2-2.9-.9-4.3-2.3ZM176,2.1h.8c2.9,0,4.2,1.1,4.2,3.5s-1.3,3.5-3.9,3.5h-1.1V2.1Z"/>
    <path class="cls-3" d="M199.8,7.2c-1.6-1-3.1-2-3.1-3.3,0-1.1.9-1.8,2.2-1.8,1.5,0,2.8,1,3.4,2.5l.1.2h.9l-.5-3.5h-.8v.1q-.1.1-.2.1c-.3,0-.5-.1-.8-.2-.5-.2-1.1-.4-2.3-.4-2.5,0-4.3,1.5-4.3,3.6s2.1,3.6,4,4.8c1.7,1.1,3.2,2,3.2,3.4,0,1.6-1.4,2.4-2.8,2.4-1.7,0-3.1-1.2-3.5-3l-.1-.2h-1l.6,4.1h.8l.1-.2c0-.1.1-.1.2-.1s.4.1.6.2c.7.2,1.7.5,2.5.5,2.8,0,4.9-1.8,4.9-4.2.1-2.4-2.1-3.7-4.1-5Z"/>
    <path class="cls-3" d="M212.9,2.3h.3c1.2.1,1.4.3,1.4,1.3v9.7c0,1.4-.2,1.6-1.4,1.7h-.3v1h6.1v-1h-.3c-1.4,0-1.6-.3-1.6-1.5V3.9c0-1.4.3-1.5,1.6-1.5h.3v-1h-6.1v.9Z"/>
    <path class="cls-3" d="M240.8,1v.2s-.1.1-.4.1h-11c-.1,0-.3,0-.4-.1v-.3h-1l-.4,4.3h1v-.2c.4-2.1.8-2.3,1.4-2.3h3.7v11c0,1-.2,1.4-1.5,1.4h-1.2v1h7.8v-1h-1.1c-1.3,0-1.5-.4-1.5-1.4V2.7h3.7c.6,0,1,.2,1.4,2.3v.2h1l-.5-4.2h-1Z"/>
    <path class="cls-3" d="M259.7,2.3h.3c.9,0,1.1.2,1.2.3,0,.1.1.3-.3.9l-3,5.1-3.4-5.2c-.4-.6-.4-.7-.3-.8,0-.1.2-.2,1.3-.2h.3v-1h-6.6v1h.3c1.3,0,1.8.2,2.9,2l4,6.3v3.1c0,.9-.2,1.3-1.5,1.3h-.7v1h6.9v-1h-.6c-1.3,0-1.5-.4-1.5-1.4v-3.3l3.8-6.3c.6-1,1.2-1.5,2.6-1.7h.3v-1h-5.7v.9h-.3Z"/>
    <path class="cls-3" d="M286.4,1c-5,0-8.6,3.4-8.6,8,0,4.2,3.7,7.4,8.5,7.4s8.4-3.5,8.4-8.1c0-4.1-3.6-7.3-8.3-7.3ZM285.8,2.1c3.6,0,6.2,2.8,6.2,6.9,0,3-1.6,6.2-5.2,6.2s-6.3-3-6.3-7c0-2.4,1.4-6.1,5.3-6.1Z"/>
    <path class="cls-3" d="M307.9,2.7c1.2,0,1.6.4,1.6,1.6v.3h1V1.3h-10.8v1h.3c1.3,0,1.4.4,1.4,1.8v8.9c0,1.8-.2,1.9-1.4,1.9h-.3v1h6.1v-1h-.3c-1.6,0-1.7-.4-1.7-1.5v-4.5h3.9c.9,0,1.3.2,1.3,1.4v.3h1v-4.6h-1v.3c-.1,1-.5,1.2-1,1.2h-4.2V2.7h4.1Z"/>
  </g>
  <g>
    <path class="cls-1" d="M26.5,50.7c-13.9,0-25.3-11.3-25.3-25.3S12.5.1,26.5.1s25.3,11.3,25.3,25.3-11.4,25.3-25.3,25.3Z"/>
    <path class="cls-2" d="M26.5,50.7c-13.9,0-25.3-11.3-25.3-25.3S12.5.1,26.5.1s25.3,11.3,25.3,25.3-11.4,25.3-25.3,25.3ZM26.5.4C12.7.4,1.5,11.6,1.5,25.4s11.2,25,25,25,25-11.2,25-25S40.2.4,26.5.4Z"/>
    <path class="cls-5" d="M51.6,24.8c0,.1-.4.5-.9.8h0c-.6.4-1.6.7-2.7,1-1.2.3-2.6.6-4.2.8-1.6.2-3.4.4-5.3.6h0c-2.4.2-4,.3-5.9.4-2.1.1-4.2.1-6.4.1v6.4q.1,9.6.4,15.5c13.9,0,25.1-11.2,25.1-25.1-.1.1-.1-.3-.1-.5Z"/>
    <g>
      <path d="M26.1,29.4v5.6q4,3.8,5.7,5.5c.4-3.2.7-7,.7-11.2v-.8c-2.5.1-4.2.1-6.4.1v.8Z"/>
      <path d="M35.3,44.8c-.9-1.4-1.7-2.4-3.5-4.3-.9,6.1-2.4,9.9-4.3,10h.6c.2,0,.4,0,.6-.1,2.7-.2,4.9-2.2,6.6-5.6Z"/>
      <path d="M38.1,34.5s-1.4,7.5-2.8,10.3c.8,1.5.8,2.1.5,3.1,2.4-1.9,4.4-4.6,5.8-8.1-.8-1.8-1.4-2.8-3.5-5.3Z"/>
      <path d="M31,50.1q.5-.1,1.5-.3l.6-.2c1.9-.6,2.2-.9,2.8-1.7-1.7,1.2-3.4,2-5.4,2.3l.5-.1Z"/>
      <path d="M42.1,44c3.6-4.1,5.8-9.9,5.8-16.5v-.8c-1.2.3-2.6.6-4.2.8v.8c0,4.3-.7,8.2-2.1,11.5.9,1.9.9,2.7.5,4.2Z"/>
      <path d="M38.5,28c-2.4.2-4,.3-5.9.4,3.4,3.6,4.2,4.4,5.6,6.1.2-1.8.3-3.7.3-5.6,0-.3,0-.6,0-.9Z"/>
    </g>
    <path d="M21,1.6c1.4-.6,2.7-1.2,5.5-1.3h0c-1.9.1-3.8.6-5.5,1.3"/>
    <path class="cls-4" d="M43.3,27.4c-1.3-.2-2.4-2.4-1.8-4.6-1.8,1.3-3.9-1.3-3.6-3.8.2-1.3,1-2.4,2.5-1.9-.6-2-1.3-4-2.2-5.8-1.3.2-2.7.3-4.2.4,1.3,2,0,3.9-1.8,3.6-1.4-.2-2.6-1.6-2.3-3.3-1.1.8-3.4.5-3.6-1.9-.1,5.1-.1,11.6-.1,18.4,6.7.1,14.5-.6,17.6-1.1h0c-.2.1-.4.1-.5,0Z"/>
    <path class="cls-4" d="M10.3,32.5c1.9-.7,4.2,2.5,3.4,4.7-.4,1-1.4,1.3-2.4.7.6,1.9,1.3,3.6,2.1,5.1,1.3.2,2.8.3,4.4.5-1.3-1.6-.3-2.9,1.5-2.8,1.5.1,3.5,1.3,3,3,1.3-.6,3.6-.1,3.9,1.6-.1-3.8-.1-9.3-.1-15.8v-.8c-2.1,0-4.3-.1-6.4-.2-4.5-.2-7.6-.4-11.4-1.1h0c1.9.6,2.5,3.5,2,5.1Z"/>
    <path class="cls-4" d="M38.4,9.3h0c.3,0,.5-.1.7-.1,1.4-.3,4.7-1,4.7-2,0,0,1.3,1.3,2.2,3.1.1.2.2.4.3.7s.2.7.2.9c0,.5-.4.6-.7.4h-.1c-1.3-.6-1.7-1.8-2-2.3-.7.2-1.7.7-2.6.9-.1,0-.3.1-.4.1,1.1,1.8,2.1,3.8,2.8,5.9,1.3-1.3,3.2,1.1,3.3,3.4.1,1.4-.6,2.6-1.8,2.1,1,1.9.7,4.6-1.2,5.2-.4-6.2-1.4-11.7-5.4-18.3h0"/>
    <path class="cls-4" d="M38.4,9.4h0c-3.2-4.9-5.7-6.7-9-7.9-.6-.3-2.8-1.1-3-1.1h0c.6.8,1.7,1.3,2,1.4-.1.3,0,.9,1,1.7.2.1.3.2.5.3,1.6.9,2,.2,2.1-.1h0c.5.4,1.5,1.1,2.5,2.4.6.7,1.2,1.4,1.6,2-1,.1-2.3.2-3.7.3-.1-1.6-1.2-2.4-2-2.7-1.4-.7-1.9,1.2-1.2,2.5-1.3-.7-2.7-.1-3,1.9,5,0,8.4-.2,12.2-.7h0"/>
    <path class="cls-4" d="M38.7,4.8v-.2c0-.1.1-.1.1-.1,0,0,0-.1.1-.1.3-.1,1-.2,3.1,1.2C37.6,2.2,33,.8,29,.4c-.6-.1-1.6-.1-1.6-.1,1.3.1,2.1.4,2.3.5.1.1.3.2.3.2h0c.3,0,.5.1.9.2s1,.4,1.6.6c.6.3,1.5.9,1.5,1.2-.1.1-.2.1-.6,0,1.5,1.1,3.6,3.1,4.9,4.5.9-.2,2.2-.3,2.8-.5-.1.1-2-1.4-2.4-2.2Z"/>
    <path class="cls-4" d="M13.1,44.3c-2.1-.3-3.4-.7-4.2-1.1-.1-.1-.2-.1-.2-.1,0,0-1.2-1.2-2.3-2.6-.8-1-1.4-2.1-1.5-2.2h.3c1.1.4,2.9,3.5,2.9,3.5.7.3,1.6.5,2.7.7-1-1.6-1.9-3.3-2.6-5.2-1.6.8-3.6-3.3-2.9-5.1.1-.4.5-1.1,1.6-.3-.8-1.8-.6-4.6,1.3-4.6.1,6.1,1,11.4,4.9,17"/>
    <path class="cls-4" d="M26.2,45.6c-.2.9-1.4,1.7-3.2,1,.8,1.1.1,2-1.3,1.7-1.1-.2-2.4-1.1-2.5-2-1.4-.1-2.6-.2-3.7-.4,1.1,1.2,2.2,2.2,3.5,3,.2-.1.4,0,1.1.2,1,.3,1.9.8,2.8,1.1h-.2c-.7-.1-.9-.2-1.3-.2-1.9-.4-5.1-1.4-8.3-5.7h0c3.9.6,7.7.9,13.1.9v.4"/>
    <path class="cls-5" d="M26.4.3C13,.3,1.6,11.3,1.4,24.9h0s.1.3.7.6h0c.5.3,1.3.7,2.3,1,1.3.3,2.6.6,3.9.8h0c3.8.6,6.9.9,11.4,1.1,2.1.1,4.3.2,6.4.2V10.2c.2-4.6.2-9.3.3-9.9h0Z"/>
    <path d="M38.5,47.5c-1.4.8-1.7.8-3.6,1.6-.5.2-1,.3-1.6.5,3.4-.9,8-4.7,8.8-5.6-.4.9-.7,1.5-1.7,2.3-.3.2-1.5.9-1.9,1.2Z"/>
    <path d="M4.4,26.5c-1-.3-1.8-.6-2.3-1,.2-9,5.3-17.1,12.6-21.5-1.7,1.5-2.5,2.5-3.4,4.6-4.1,4.7-6.7,11.1-6.9,17.9"/>
    <path d="M14.8,4c1.8-1.3,2.9-2.3,5.8-3,2-.5,3.8-.7,5.9-.7h0c-4.3.1-8.3,1.6-11.7,3.7"/>
    <path d="M13.4,28c-1.8-.2-3.6-.4-5.1-.7.1-4.6,1.1-8.9,2.7-12.8.6,2.5,1.2,3.9,3,6.9-.4,2.2-.6,4.4-.6,6.6"/>
    <path d="M26.2,10.1c0,2.8,0,5.6-.1,7.8v4.1c-2.5-2.6-3.8-4-5.6-6.3,1.2-7.8,3.4-14,5.9-15.4h0c-.1.7-.1,5.1-.2,9.8Z"/>
    <path d="M17.4,9.8c-1.6,3.3-2.8,7.3-3.4,11.6,1.5,2.3,2.5,3.6,5.5,7,0-4.5.4-8.8,1-12.8-1.8-2.5-2.4-3.7-3.1-5.8Z"/>
    <path d="M50.6,25.6v.8c0,8.9-4.3,16.3-11.1,20.4l-.1.2c3.2-2,7.2-5.3,9.8-10.7,2.7-5.4,2.4-11.4,2.4-11.4-.1.2-.5.5-1,.7Z"/>
    <path d="M21,1.6c-3.7,1.4-7,3.9-9.6,7-.7,2.3-.7,3.6-.4,6,1.6-3.8,3.9-7.1,6.6-9.6.8-1.5,1.3-2.3,3.4-3.4Z"/>
    <path d="M17.4,9.9c-.5-2.1-.5-3.1.2-4.9C20.2,2.6,23.2.8,26.5.3c-3.6.9-6.8,4.6-9.1,9.6"/>
  </g>
</svg>